<?xml version="1.0" encoding="UTF-8"?>
<svg version="1.1" xmlns="http://www.w3.org/2000/svg" width="2134" height="2134">
<path d="M0 0 C4.017241 0.5997648 6.97745664 1.87754182 10.515625 3.8515625 C12.1251001 4.74560791 12.1251001 4.74560791 13.76708984 5.65771484 C14.92831611 6.31302276 16.08927912 6.96879734 17.25 7.625 C18.46429573 8.30560789 19.67865218 8.98610746 20.89306641 9.66650391 C30.89985263 15.29442597 40.74710445 21.17670259 50.56640625 27.125 C56.83408819 30.91597565 63.15192728 34.61661705 69.47958374 38.30612183 C83.38401491 46.41458991 97.15295927 54.73192137 110.89501953 63.11181641 C115.25152094 65.76106801 119.62398327 68.38315193 124 71 C134.87128931 77.5063785 145.69592678 84.08940831 156.52201843 90.670578 C160.74937646 93.24033409 164.97782826 95.80828149 169.20703125 98.375 C181.95580488 106.11242111 194.70078984 113.85601191 207.4375 121.61328125 C211.16537307 123.88364496 214.89462682 126.15171537 218.625 128.41796875 C229.75493615 135.18179597 240.85898824 141.98597375 251.9453125 148.82104492 C260.04710869 153.81087304 268.17441399 158.75716721 276.3125 163.6875 C285.35539179 169.16606731 294.37091528 174.68581567 303.35205078 180.26513672 C309.60958795 184.14908367 315.89273307 187.98922237 322.1875 191.8125 C335.93241207 200.16211503 349.62081844 208.6029226 363.31152344 217.04101562 C374.79504295 224.11771332 386.28407998 231.18412643 397.8125 238.1875 C405.86141126 243.07752591 413.88408677 248.00759252 421.88720703 252.97216797 C428.81153262 257.26713348 435.74714074 261.54349509 442.6875 265.8125 C444.32489136 266.81966064 444.32489136 266.81966064 445.99536133 267.84716797 C448.22000824 269.21540332 450.44469921 270.58356704 452.66943359 271.95166016 C458.11367568 275.29993688 463.5567889 278.65004759 469 282 C471.16666108 283.33334242 473.33332775 284.66667574 475.5 286 C479.83333333 288.66666667 484.16666667 291.33333333 488.5 294 C489.57290283 294.6602417 490.64580566 295.3204834 491.7512207 296.00073242 C493.91384072 297.33158801 496.07643845 298.66247983 498.23901367 299.9934082 C503.71741008 303.36495125 509.19621492 306.73582739 514.67578125 310.10546875 C528.97399917 318.89912965 543.25492307 327.72014395 557.52246094 336.56347656 C567.90112161 342.99560448 578.28804923 349.41402973 588.6875 355.8125 C589.77748291 356.48313477 590.86746582 357.15376953 591.99047852 357.84472656 C597.5223058 361.24755359 603.05535661 364.64837584 608.58984375 368.046875 C620.14855055 375.14778997 631.67876473 382.29051155 643.17236328 389.49633789 C649.91665379 393.71721284 656.69625502 397.87574456 663.5 402 C672.31430961 407.34300808 681.06950697 412.7739628 689.80200195 418.24951172 C698.32714583 423.59091465 706.87583446 428.89368413 715.47070312 434.12231445 C720.67202915 437.29319517 725.80996963 440.5134306 730.8515625 443.93359375 C731.77557861 444.54638184 732.69959473 445.15916992 733.65161133 445.79052734 C735.35735945 446.92644072 737.0467121 448.08760909 738.71362305 449.27978516 C743.26571793 452.27266985 746.39865827 453.30036169 751.86149406 452.75562859 C753.01188408 452.64359714 754.16227409 452.5315657 755.3475244 452.41613936 C761.62852203 451.70052326 767.89883465 450.92624717 774.16531372 450.09353638 C775.65589172 449.89810185 777.14650984 449.70297321 778.637164 449.50812042 C782.70075247 448.97605455 786.76376346 448.43969136 790.82668734 447.9025774 C795.22584625 447.32179668 799.62553698 446.7450706 804.02516174 446.16783142 C812.65095623 445.03547473 821.27626271 443.89944172 829.90141626 442.7622145 C840.02791089 441.42720624 850.15491972 440.09611832 860.28195499 438.76521848 C878.44972686 436.37748875 896.61708006 433.98658869 914.78417969 431.59375 C932.21916359 429.2973462 949.65435899 427.00255897 967.08984375 424.70996094 C968.15364923 424.57008031 969.21745471 424.43019969 970.31349672 424.28608026 C974.59610235 423.72296279 978.87870911 423.159854 983.16131748 422.59675742 C1015.51109341 418.34321959 1047.86070848 414.08844866 1080.20961154 409.82827712 C1084.808284 409.22268033 1089.40698395 408.61729401 1094.00575089 408.01241517 C1113.60302335 405.43474993 1133.19844511 402.8441942 1152.78958912 400.22031613 C1158.60836725 399.4413969 1164.42743631 398.66465281 1170.24648555 397.88776191 C1175.76178946 397.15104685 1181.2765168 396.41019194 1186.79083747 395.66615504 C1190.16878908 395.21130322 1193.54723359 394.76019971 1196.92582145 394.3101007 C1198.48535608 394.10152018 1200.04467809 393.89134255 1201.60376343 393.67942986 C1203.73609381 393.3897831 1205.86910974 393.10581953 1208.00237846 392.82317924 C1209.78703209 392.58325447 1209.78703209 392.58325447 1211.60773933 392.33848274 C1215.09570909 391.99045006 1218.49713807 391.97746228 1222 392 C1222.07697468 432.27123496 1222.15078171 472.54247548 1222.22216797 512.8137207 C1222.22356514 513.60175167 1222.2249623 514.38978263 1222.22640181 515.20169332 C1222.37601155 599.63322665 1222.50513824 684.06476183 1222.59280396 768.49638367 C1222.59475626 770.3716518 1222.59670858 772.24691994 1222.59866092 774.12218807 C1222.63957775 813.48380835 1222.67761186 852.84543099 1222.71231549 892.20705723 C1222.72975113 911.97945042 1222.74774077 931.75184308 1222.76625418 951.52423529 C1222.76904366 954.50684218 1222.77181732 957.48944909 1222.77459032 960.472056 C1222.81743448 1006.40472892 1222.87216603 1052.33734992 1222.96130371 1098.2699585 C1222.96322029 1099.25769072 1222.96513688 1100.24542294 1222.96711154 1101.26308644 C1222.99808507 1117.18844404 1223.03005547 1133.11379965 1223.06215817 1149.03915501 C1223.1545989 1194.90426603 1223.23967885 1240.76933713 1223.27595711 1286.63453197 C1223.2767066 1287.57754364 1223.27745609 1288.52055531 1223.27822829 1289.49214309 C1223.29454829 1310.19263059 1223.30707657 1330.89311859 1223.31601376 1351.59361055 C1223.31967651 1359.92256235 1223.32388519 1368.25151387 1223.3282814 1376.58046532 C1223.32874938 1377.49203754 1223.32921736 1378.40360976 1223.32969952 1379.34280538 C1223.34505416 1408.72271879 1223.40486371 1438.10233573 1223.48795092 1467.48212947 C1223.5714325 1497.07324004 1223.61139649 1526.66406284 1223.59073583 1556.25529418 C1223.58789265 1560.34310025 1223.58554932 1564.43090646 1223.58350754 1568.518713 C1223.58308921 1569.32004989 1223.58267088 1570.12138679 1223.58223988 1570.94700662 C1223.57690757 1583.64356928 1223.61872006 1596.33952365 1223.68013807 1609.03592049 C1223.73954391 1621.51619114 1223.74917886 1633.99567228 1223.70564539 1646.47601749 C1223.68372465 1653.15451876 1223.68569984 1659.83141937 1223.74836455 1666.50982574 C1223.8049224 1672.58335625 1223.7972916 1678.65325848 1223.73795966 1684.72673161 C1223.72794131 1686.91257572 1223.7415212 1689.09868442 1223.78129343 1691.28418962 C1224.05159696 1707.13995375 1224.05159696 1707.13995375 1220.61300958 1711.93354583 C1216.8814198 1715.75584261 1212.60062902 1718.34502554 1208 1721 C1206.55069517 1722.1206459 1205.11814318 1723.26482237 1203.73046875 1724.4609375 C1203.14144775 1724.9448999 1202.55242676 1725.4288623 1201.94555664 1725.92749023 C1201.36539795 1726.40516846 1200.78523926 1726.88284668 1200.1875 1727.375 C1194.72833073 1731.84317571 1189.18780054 1736.18072537 1183.5625 1740.4375 C1176.960215 1745.43652432 1170.53615642 1750.61633797 1164.16650391 1755.90771484 C1159.25085455 1759.98685138 1154.27030598 1763.96682106 1149.23095703 1767.89160156 C1144.83206862 1771.32506357 1140.50465143 1774.8395377 1136.1875 1778.375 C1130.72718606 1782.84180896 1125.18785343 1787.18068534 1119.5625 1791.4375 C1112.960215 1796.43652432 1106.53615642 1801.61633797 1100.16650391 1806.90771484 C1095.25085455 1810.98685138 1090.27030598 1814.96682106 1085.23095703 1818.89160156 C1080.83206862 1822.32506357 1076.50465143 1825.8395377 1072.1875 1829.375 C1066.72718606 1833.84180896 1061.18785343 1838.18068534 1055.5625 1842.4375 C1048.960215 1847.43652432 1042.53615642 1852.61633797 1036.16650391 1857.90771484 C1031.25085455 1861.98685138 1026.27030598 1865.96682106 1021.23095703 1869.89160156 C1016.83206862 1873.32506357 1012.50465143 1876.8395377 1008.1875 1880.375 C1002.72718606 1884.84180896 997.18785343 1889.18068534 991.5625 1893.4375 C984.960215 1898.43652432 978.53615642 1903.61633797 972.16650391 1908.90771484 C967.25085455 1912.98685138 962.27030598 1916.96682106 957.23095703 1920.89160156 C952.83206862 1924.32506357 948.50465143 1927.8395377 944.1875 1931.375 C938.72718606 1935.84180896 933.18785343 1940.18068534 927.5625 1944.4375 C920.960215 1949.43652432 914.53615642 1954.61633797 908.16650391 1959.90771484 C903.25085455 1963.98685138 898.27030598 1967.96682106 893.23095703 1971.89160156 C888.83206862 1975.32506357 884.50465143 1978.8395377 880.1875 1982.375 C874.72718606 1986.84180896 869.18785343 1991.18068534 863.5625 1995.4375 C856.960215 2000.43652432 850.53615642 2005.61633797 844.16650391 2010.90771484 C839.25085455 2014.98685138 834.27030598 2018.96682106 829.23095703 2022.89160156 C824.83206862 2026.32506357 820.50465143 2029.8395377 816.1875 2033.375 C810.72718606 2037.84180896 805.18785343 2042.18068534 799.5625 2046.4375 C792.960215 2051.43652432 786.53615642 2056.61633797 780.16650391 2061.90771484 C775.25085455 2065.98685138 770.27030598 2069.96682106 765.23095703 2073.89160156 C760.83206862 2077.32506357 756.50465143 2080.8395377 752.1875 2084.375 C746.72718606 2088.84180896 741.18785343 2093.18068534 735.5625 2097.4375 C728.96772717 2102.43083637 722.54991256 2107.60356404 716.18847656 2112.89013672 C711.07294722 2117.1363838 705.89006234 2121.2833748 700.63989258 2125.36181641 C697.4731647 2127.80155078 697.4731647 2127.80155078 694.48583984 2130.45263672 C692.98046875 2131.87109375 692.98046875 2131.87109375 690 2134 C685.90838312 2133.63986236 682.25967941 2132.51662506 678.41186523 2131.12426758 C677.3255632 2130.73403915 676.23926117 2130.34381073 675.12004089 2129.9417572 C673.94476334 2129.51367264 672.76948578 2129.08558807 671.55859375 2128.64453125 C670.2996262 2128.19014761 669.04049194 2127.73622567 667.78120422 2127.2827301 C664.37536394 2126.0548028 660.97182303 2124.82061447 657.56864929 2123.58531952 C653.98299669 2122.28505288 650.39521524 2120.99068781 646.80761719 2119.69580078 C640.84255349 2117.54207552 634.87865754 2115.38514667 628.91552734 2113.22607422 C620.43211651 2110.15478088 611.94517986 2107.09332779 603.45703125 2104.03515625 C600.81233039 2103.08221303 598.16763919 2102.12924298 595.52294922 2101.17626953 C594.87852119 2100.94406834 594.23409317 2100.71186714 593.57013702 2100.47262955 C583.07369039 2096.69025854 572.57960301 2092.90134581 562.08514404 2089.11346436 C558.54061571 2087.83420287 554.99593246 2086.55537124 551.45121765 2085.27662659 C532.69221493 2078.50917484 513.93937091 2071.7246847 495.1875 2064.9375 C493.32797195 2064.26448853 493.32797195 2064.26448853 491.43087769 2063.57788086 C477.95334366 2058.69961936 464.4785001 2053.8141386 451.01171875 2048.90625 C426.86381597 2040.10680288 402.6954366 2031.37140313 378.48416138 2022.74771118 C360.10617499 2016.20017958 341.75888523 2009.57219356 323.42880249 2002.89181519 C304.73621817 1996.0794478 286.0293745 1989.30776287 267.3125 1982.5625 C265.99169833 1982.08645878 264.67089754 1981.61041508 263.35009766 1981.1343689 C257.08381388 1978.87593274 250.81734899 1976.61799967 244.55078125 1974.36035156 C221.08868496 1965.9072944 197.63710728 1957.42513221 174.1875 1948.9375 C172.95246735 1948.49048737 171.71743469 1948.04347473 170.44497681 1947.58291626 C156.79912074 1942.64318314 143.15586396 1937.69644848 129.51953125 1932.73046875 C127.76659256 1932.0921109 127.76659256 1932.0921109 125.97824097 1931.44085693 C123.64361536 1930.59063822 121.30899011 1929.7404185 118.97436523 1928.89019775 C102.0627136 1922.73178256 85.14326815 1916.59847558 68.1875 1910.5625 C51.71059409 1904.69688195 35.25676026 1898.76903233 18.8125 1892.8125 C16.97123535 1892.14557632 16.97123535 1892.14557632 15.09277344 1891.46517944 C1.70127051 1886.61354296 -11.686812 1881.75257468 -25.0703125 1876.87890625 C-26.78213966 1876.25557152 -26.78213966 1876.25557152 -28.52854919 1875.61964417 C-29.66470169 1875.20593063 -30.80085419 1874.7922171 -31.97143555 1874.3659668 C-34.25178684 1873.53563485 -36.53214164 1872.70531255 -38.8125 1871.875 C-39.93629059 1871.46577301 -41.06008118 1871.05654602 -42.21792603 1870.63491821 C-61.474243 1863.62477709 -80.75556856 1856.68593603 -100.05395508 1849.79248047 C-117.39412601 1843.5937272 -134.69280562 1837.29352523 -152 1831 C-150.68 1930.99 -149.36 2030.98 -148 2134 C-148.66 2134 -149.32 2134 -150 2134 C-151.6015625 2132.11328125 -151.6015625 2132.11328125 -153.625 2129.3125 C-154.43761256 2128.20225338 -155.25151836 2127.09295267 -156.06640625 2125.984375 C-156.5267627 2125.35595703 -156.98711914 2124.72753906 -157.46142578 2124.08007812 C-160.44977433 2120.03997504 -163.51182399 2116.05561041 -166.5625 2112.0625 C-167.95973121 2110.23054181 -169.35686507 2108.39850936 -170.75390625 2106.56640625 C-171.80989014 2105.18219482 -171.80989014 2105.18219482 -172.88720703 2103.77001953 C-176.25997761 2099.34808113 -179.62989132 2094.92396724 -183 2090.5 C-184.33331861 2088.74998878 -185.66665197 2086.9999888 -187 2085.25 C-253 1998.625 -319 1912 -579 1570.75 C-579.66080566 1569.88270264 -580.32161133 1569.01540527 -581.00244141 1568.12182617 C-582.327676 1566.38243552 -583.6528717 1564.64301524 -584.97802734 1562.90356445 C-588.43494316 1558.36599002 -591.89265539 1553.82902549 -595.3515625 1549.29296875 C-596.42470703 1547.8853125 -596.42470703 1547.8853125 -597.51953125 1546.44921875 C-598.87865352 1544.66647396 -600.23801143 1542.88390878 -601.59765625 1541.1015625 C-602.21769531 1540.28816406 -602.83773438 1539.47476562 -603.4765625 1538.63671875 C-604.36819092 1537.47342041 -604.36819092 1537.47342041 -605.27783203 1536.28662109 C-606.42745476 1534.76020112 -607.55362966 1533.21584098 -608.65576172 1531.65478516 C-609.17154785 1530.92952637 -609.68733398 1530.20426758 -610.21875 1529.45703125 C-610.66412109 1528.81354736 -611.10949219 1528.17006348 -611.56835938 1527.50708008 C-613.30454075 1525.67941165 -614.40497782 1525.35800546 -616.875 1525 C-617.90625 1525 -618.9375 1525 -620 1525 C-620.00918457 1524.24493164 -620.01836914 1523.48986328 -620.02783203 1522.71191406 C-620.78513513 1519.65958328 -620.78513513 1519.65958328 -624.19482422 1518.23339844 C-625.64029748 1517.67152425 -627.09450663 1517.13183781 -628.5546875 1516.609375 C-629.34564819 1516.30784012 -630.13660889 1516.00630524 -630.95153809 1515.69563293 C-633.58619557 1514.69551138 -636.23036346 1513.7233924 -638.875 1512.75 C-640.73605038 1512.04777066 -642.5962271 1511.34322202 -644.45556641 1510.63647461 C-648.34929315 1509.1573969 -652.24598008 1507.68652488 -656.14453125 1506.22021484 C-664.37224654 1503.11375975 -672.54448761 1499.86880567 -680.71646118 1496.61917114 C-684.31313875 1495.18962444 -687.91207113 1493.76579935 -691.51094055 1492.34178162 C-694.22414906 1491.26812579 -696.93707156 1490.19375048 -699.64990234 1489.11914062 C-708.32829969 1485.68156678 -717.00746249 1482.24593031 -725.6875 1478.8125 C-726.55324646 1478.47002228 -727.41899292 1478.12754456 -728.31097412 1477.77468872 C-744.19751247 1471.49147479 -760.09766881 1465.24311755 -776 1459 C-797.07038652 1450.72794867 -818.12967498 1442.428547 -839.17597961 1434.09542847 C-845.59449216 1431.55464719 -852.01567317 1429.02067216 -858.4375 1426.48828125 C-861.30752767 1425.35587199 -864.17750277 1424.22332961 -867.04745483 1423.09072876 C-868.8410698 1422.38320056 -870.63486211 1421.67612172 -872.42886353 1420.96957397 C-882.18798323 1417.12576892 -891.9229206 1413.22927135 -901.62768555 1409.25 C-902.63167137 1408.83878906 -903.6356572 1408.42757813 -904.67006683 1408.00390625 C-907.11355479 1407.00303496 -909.55686255 1406.00172648 -912 1405 C-912.20545952 1345.91225436 -912.39650184 1286.82447163 -912.50811768 1227.73646545 C-912.50977436 1226.86167956 -912.51143105 1225.98689366 -912.51313793 1225.0855991 C-912.54905442 1206.0732731 -912.58229638 1187.06094329 -912.61278395 1168.04860782 C-912.62775174 1158.72470581 -912.64331042 1149.40080482 -912.65917969 1140.0769043 C-912.66153335 1138.68515814 -912.66153335 1138.68515814 -912.66393456 1137.26529591 C-912.71505345 1107.2018721 -912.80517595 1077.13871929 -912.91556665 1047.0754596 C-913.02881927 1016.17661458 -913.10263948 985.27791948 -913.12697988 954.37887041 C-913.13043764 950.01270219 -913.13434528 945.64653448 -913.13852692 941.2803669 C-913.13974053 939.99140452 -913.13974053 939.99140452 -913.14097866 938.67640249 C-913.1551489 924.85438816 -913.21077672 911.03283794 -913.28198441 897.21101273 C-913.3527183 883.30888345 -913.37959439 869.40721337 -913.36201653 855.50491052 C-913.3529023 847.24902727 -913.37709961 838.99482717 -913.44957052 830.7392485 C-913.50004248 824.56686767 -913.48744603 818.39609959 -913.45078674 812.22365505 C-913.44572515 809.73210715 -913.46087529 807.2404163 -913.49859819 804.74914884 C-913.68243935 791.85535912 -913.55673632 782.23397737 -904.48574536 772.41756364 C-903.46045879 771.38060427 -902.42238399 770.35606394 -901.36935058 769.34729344 C-899.59598593 767.60249369 -898.14056518 765.68849746 -896.6953125 763.66796875 C-896.04925049 762.79652222 -896.04925049 762.79652222 -895.39013672 761.9074707 C-894.9726416 761.33988037 -894.55514648 760.77229004 -894.125 760.1875 C-888.07798706 752.04947336 -881.84892995 744.05889128 -875.61035156 736.06738281 C-871.71397669 731.06518414 -867.86037495 726.02999186 -864 721 C-862.33390747 718.83289153 -860.66694801 716.66645047 -859 714.5 C-858.16665095 713.41667876 -857.33331759 712.33334544 -856.5 711.25 C-815.25 657.625 -774 604 -721.5 535.75 C-721.08733887 535.21294434 -720.67467773 534.67588867 -720.24951172 534.12255859 C-719.42013388 533.04556659 -718.58844467 531.97035039 -717.75439453 530.89697266 C-715.58763831 528.10217115 -713.47616734 525.28274835 -711.4296875 522.3984375 C-711.00171875 521.80869141 -710.57375 521.21894531 -710.1328125 520.61132812 C-708.94846372 518.97641188 -707.78219813 517.32843957 -706.6171875 515.6796875 C-700.81437768 509.73830312 -690.66052073 508.39063911 -682.86328125 506.203125 C-681.51803253 505.82293428 -680.17287665 505.44241491 -678.82780457 505.06159973 C-675.89110905 504.23081893 -672.95383772 503.40211668 -670.01611328 502.57498169 C-665.17901283 501.21294346 -660.34328789 499.84606627 -655.5078125 498.47827148 C-654.66400717 498.23959949 -653.82020184 498.00092749 -652.95082664 497.755023 C-651.20285473 497.26060359 -649.45488611 496.76617255 -647.70692062 496.27173042 C-644.9743519 495.49894173 -642.24165816 494.72659639 -639.50894165 493.95433044 C-625.1930422 489.9079023 -610.88260059 485.84245549 -596.57421875 481.76953125 C-595.48242247 481.45876459 -594.39062618 481.14799793 -593.26574516 480.8278141 C-588.77791423 479.55037736 -584.29010615 478.27286033 -579.80232525 476.99524784 C-537.7840123 465.03323488 -495.75457218 453.11110129 -453.71520996 441.22328568 C-426.46316414 433.51688431 -399.21590482 425.79550698 -371.99078369 417.99447632 C-343.83451577 409.92869401 -315.64805935 401.96972417 -287.4644165 394.00024414 C-260.46690587 386.36601783 -233.47069544 378.72851097 -206.5 371 C-187.62411433 365.59107424 -168.73762899 360.2207148 -149.84375 354.875 C-148.15745704 354.39788857 -148.15745704 354.39788857 -146.43709755 353.91113853 C-134.81603416 350.62340296 -123.19446313 347.33746514 -111.57248783 344.05295467 C-90.51469065 338.10136194 -69.45776734 332.14774836 -48.42578125 326.10546875 C-46.90429186 325.66869339 -45.38279742 325.23193559 -43.86129761 324.79519653 C-35.62331175 322.42982848 -35.62331175 322.42982848 -27.38891602 320.05200195 C-23.8397483 319.02449613 -20.28914369 318.0020991 -16.73828125 316.98046875 C-15.23059929 316.54059883 -15.23059929 316.54059883 -13.69245911 316.09184265 C-8.79185125 314.68643222 -4.06974778 313.56223577 1 313 C0.67 312.01 0.34 311.02 0 310 C-0.16686225 307.58646793 -0.28297679 305.19490873 -0.35717773 302.77832031 C-0.38340871 302.03783699 -0.40963968 301.29735367 -0.43666553 300.53443146 C-0.52343231 298.04912697 -0.60358908 295.56365573 -0.68359375 293.078125 C-0.74374516 291.30486062 -0.80419734 289.53160641 -0.8649292 287.75836182 C-1.0285049 282.93415218 -1.18545101 278.10974972 -1.34014511 273.2852478 C-1.43781989 270.24002671 -1.53653186 267.19484056 -1.63540649 264.1496582 C-2.11165512 249.43374359 -2.56373625 234.7171519 -3 220 C-3.02865143 219.03504608 -3.05730286 218.07009216 -3.08682251 217.07589722 C-4.39941599 172.71707853 -5.18206086 128.37925127 -5.1875 84 C-5.18802242 83.03905426 -5.18854485 82.07810852 -5.1890831 81.08804321 C-5.22528816 8.81084154 -5.22528816 8.81084154 0 0 Z M749.68273926 458.85679626 C748.74586651 459.04778617 747.80899376 459.23877607 746.84373093 459.43555355 C745.80281925 459.64881063 744.76190758 459.8620677 743.68945312 460.08178711 C742.5934441 460.30554551 741.49743507 460.52930391 740.36821365 460.75984287 C736.67235536 461.51468309 732.97679851 462.27098841 729.28125 463.02734375 C727.3248986 463.4272479 725.368547 463.8271511 723.4121778 464.22696817 C715.60467318 465.82258617 707.79757689 467.42019586 699.99058533 469.01832199 C696.2444287 469.78516638 692.49821356 470.5517245 688.75197721 471.31817931 C641.44955054 480.99594665 594.15956446 490.73266916 546.87841797 500.51391602 C541.85905596 501.55227741 536.83968709 502.59060567 531.8203125 503.62890625 C530.57335979 503.88686037 529.32640709 504.14481449 528.04166794 504.4105854 C497.29041409 510.77151709 466.5330636 517.10278376 435.77536583 523.43246698 C432.19061058 524.17018916 428.60586421 524.9079545 425.02111816 525.64572144 C424.31090311 525.7918887 423.60068805 525.93805597 422.86895132 526.08865255 C415.69497869 527.5651099 408.52101024 529.04158759 401.3470459 530.51808524 C399.19456111 530.96109215 397.04207438 531.40408966 394.8895874 531.84708595 C373.94396058 536.15787652 352.99899624 540.47187251 332.0546875 544.7890625 C331.38140049 544.9278449 330.70811349 545.0666273 330.01442385 545.20961523 C321.19737174 547.02705874 312.38035509 548.84467425 303.56334686 550.66233063 C291.34435121 553.18131479 279.1253243 555.70014732 266.90625 558.21875 C266.23234458 558.35765608 265.55843917 558.49656217 264.86411238 558.63967752 C232.62298147 565.28519067 200.38024484 571.92290011 168.13738585 578.56002283 C122.81960784 587.88860883 77.50278599 597.22181571 32.1875 606.5625 C31.17747862 606.77069178 31.17747862 606.77069178 30.14705276 606.98308945 C17.24273812 609.64301003 4.33844546 612.30303724 -8.56582642 614.96316528 C-27.6206305 618.89118023 -46.67551777 622.81879143 -65.73046875 626.74609375 C-66.74410441 626.95500838 -66.74410441 626.95500838 -67.77821755 627.16814351 C-73.92238559 628.43448244 -80.06655455 629.70081689 -86.21072483 630.96714497 C-95.76589488 632.93648829 -105.32105978 634.90585655 -114.8762207 636.87524414 C-115.55165306 637.01445561 -116.22708543 637.15366709 -116.92298543 637.29709709 C-120.3341786 638.00016869 -123.74537168 638.70324072 -127.15656471 639.40631294 C-133.29707775 640.67191808 -139.43759157 641.93751942 -145.57810533 643.20312107 C-148.98957025 643.90624722 -152.40103512 644.60937362 -155.8125 645.3125 C-157.17708333 645.59375 -158.54166667 645.875 -159.90625 646.15625 C-160.91945313 646.36507812 -160.91945313 646.36507812 -161.953125 646.578125 C-207.66666667 656 -253.38020833 665.421875 -299.09375 674.84375 C-300.10695109 675.05257771 -300.10695109 675.05257771 -301.14062089 675.26562417 C-302.50521792 675.54687698 -303.86981497 675.82812976 -305.23441201 676.10938251 C-308.64566076 676.81246416 -312.05690939 677.51554639 -315.46815777 678.21862984 C-321.61128533 679.48477313 -327.75441375 680.7509123 -333.89754671 682.0170294 C-337.31231364 682.72082268 -340.72707986 683.42461941 -344.1418457 684.12841797 C-344.81783833 684.26774301 -345.49383096 684.40706806 -346.19030821 684.55061507 C-355.69242682 686.50905047 -365.19450567 688.46767872 -374.69655907 690.42643046 C-380.79118657 691.68276845 -386.88582593 692.93904887 -392.98046875 694.1953125 C-393.65161075 694.33365336 -394.32275276 694.47199422 -395.0142324 694.61452723 C-414.85514119 698.70425932 -434.69665653 702.7910377 -454.5385989 706.87575221 C-459.69311972 707.9368971 -464.84759671 708.99825467 -470.00204468 710.05975342 C-470.72658077 710.20896311 -471.45111686 710.3581728 -472.19760859 710.511904 C-475.82864191 711.25968133 -479.45966934 712.00748731 -483.09069252 712.75531387 C-490.00613376 714.17954299 -496.9216591 715.60336106 -503.83740234 717.02612305 C-505.16413431 717.29910751 -506.49086568 717.57209485 -507.81759644 717.84508514 C-510.19828655 718.33490579 -512.57899951 718.82461542 -514.95974731 719.31415558 C-518.93824423 720.13277506 -522.91641652 720.95296334 -526.89453125 721.7734375 C-527.87872756 721.97637864 -528.86292387 722.17931978 -529.8769443 722.38841066 C-549.19508844 726.37339174 -568.50406574 730.40076145 -587.80802321 734.45385027 C-591.34892494 735.19720139 -594.88993359 735.94004289 -598.43093109 736.68293762 C-605.28738732 738.12148248 -612.14373293 739.56055385 -619 741 C-619.0856589 815.22509892 -619.16516156 889.45020378 -619.2117157 963.67533875 C-619.21240598 964.77311012 -619.21309627 965.87088149 -619.21380747 967.00191867 C-619.22877045 990.85687602 -619.24262158 1014.7118339 -619.25532665 1038.56679257 C-619.26156357 1050.2644992 -619.26804631 1061.96220569 -619.2746582 1073.65991211 C-619.275312 1074.82400229 -619.27596579 1075.98809247 -619.2766394 1077.18745811 C-619.29796318 1114.9494183 -619.3355324 1152.71134118 -619.3814861 1190.47327875 C-619.42860635 1229.26407575 -619.45941728 1268.05485209 -619.46957495 1306.84567723 C-619.47101582 1312.31897986 -619.47264401 1317.79228241 -619.47438622 1323.26558495 C-619.47472333 1324.3428569 -619.47506045 1325.42012886 -619.47540778 1326.53004542 C-619.48132667 1343.90248506 -619.50454464 1361.27486101 -619.53416017 1378.64727464 C-619.56353486 1396.09345068 -619.57485539 1413.5395633 -619.56750689 1430.98576323 C-619.56369104 1441.36318099 -619.57395744 1451.74036739 -619.60398772 1462.11774356 C-619.62265584 1469.03885456 -619.62337615 1475.95981304 -619.60915907 1482.88093433 C-619.60156772 1486.83163194 -619.60210497 1490.78189027 -619.62441591 1494.73254184 C-619.64820544 1498.9770008 -619.6338084 1503.22044055 -619.61523914 1507.46492481 C-619.62837421 1508.70682887 -619.64150928 1509.94873293 -619.65504238 1511.22827044 C-619.64380591 1512.35164432 -619.63256945 1513.4750182 -619.62099248 1514.63243371 C-619.62177238 1515.60403702 -619.62255229 1516.57564033 -619.62335582 1517.57668616 C-619.21742939 1520.23640574 -619.21742939 1520.23640574 -616.58618797 1521.71047289 C-615.30602492 1522.34878881 -615.30602492 1522.34878881 -614 1523 C-613.34 1523.66 -612.68 1524.32 -612 1525 C-609.74526273 1525.45548771 -609.74526273 1525.45548771 -607.07498473 1525.61685085 C-606.02449321 1525.70375577 -604.97400168 1525.79066068 -603.89167708 1525.88019908 C-602.72569859 1525.96722224 -601.5597201 1526.05424541 -600.35840893 1526.14390564 C-599.12283973 1526.24337756 -597.88727053 1526.34284949 -596.61425984 1526.44533571 C-593.15522248 1526.72192266 -589.69571487 1526.99019943 -586.23577711 1527.25513705 C-582.47443049 1527.54517166 -578.71392848 1527.84579547 -574.95331079 1528.14510685 C-568.33727848 1528.67019554 -561.7207358 1529.18842253 -555.10382175 1529.7022754 C-545.22540147 1530.46944404 -535.34782701 1531.24710648 -525.47039851 1532.02692795 C-508.72550244 1533.34863212 -491.97994015 1534.66171218 -475.23399925 1535.97010612 C-458.39944171 1537.28546099 -441.56520165 1538.60477512 -424.73134804 1539.92910957 C-423.67561256 1540.01216322 -422.61987709 1540.09521686 -421.53214962 1540.18078729 C-416.15758052 1540.60361973 -410.78301686 1541.02652124 -405.40845529 1541.44944938 C-366.80510287 1544.48705268 -328.20108078 1547.51606964 -289.59667969 1550.54031372 C-251.76579899 1553.50399075 -213.93519429 1556.47115092 -176.10498047 1559.44332886 C-174.93741767 1559.53505863 -173.76985486 1559.6267884 -172.56691137 1559.72129786 C-158.40008749 1560.83432473 -144.23327536 1561.94750098 -130.06646722 1563.06072811 C-108.7865938 1564.73288835 -87.50669351 1566.40470657 -66.22678692 1568.07644471 C-63.8635065 1568.2621032 -61.50022619 1568.44776325 -59.13694601 1568.63342485 C-23.63881155 1571.42219135 11.85946995 1574.20907987 47.35786848 1576.99448285 C148.6706709 1584.94409995 249.9825118 1592.9055611 371.36922492 1602.4936137 C382.74490171 1603.39226374 394.12059523 1604.29070154 405.49630165 1605.18897629 C406.28558068 1605.25130131 407.07485971 1605.31362633 407.88805629 1605.37783999 C411.05616565 1605.62800773 414.22427508 1605.87817468 417.39238461 1606.1283403 C443.71273933 1608.20669891 470.03307052 1610.28535564 496.35336304 1612.36450195 C497.06452204 1612.42067901 497.77568104 1612.47685606 498.50839031 1612.53473545 C514.8785017 1613.82788289 531.24857562 1615.12150272 547.61856461 1616.41619873 C548.32237635 1616.47186285 549.02618809 1616.52752698 549.75132746 1616.58487789 C555.39600274 1617.03131634 561.04067674 1617.47777106 566.68535036 1617.9242306 C589.76351796 1619.74956015 612.84188175 1621.57239059 635.92047447 1623.39233869 C648.89610371 1624.41566663 661.8715702 1625.44100585 674.8467983 1626.46940779 C683.35345453 1627.14345811 691.8603046 1627.81502145 700.36732346 1628.48447961 C705.17690116 1628.86304393 709.98638316 1629.2427288 714.79562533 1629.62553406 C719.14677295 1629.97185865 723.49816236 1630.31495608 727.84977052 1630.6554436 C729.40951663 1630.77805774 730.96917017 1630.90185676 732.52871653 1631.02698589 C734.64323319 1631.19647229 736.75804948 1631.3615803 738.87299347 1631.52563572 C740.04149354 1631.61798703 741.2099936 1631.71033834 742.41390276 1631.80548817 C746.60361088 1632.03274018 750.80413327 1632 755 1632 C755 1244.58 755 857.16 755 458 C753.19730992 458 751.44310545 458.49701533 749.68273926 458.85679626 Z " fill="#4082C6" transform="translate(912,0)"/>
</svg>
