<?xml version="1.0" encoding="UTF-8"?>
<svg version="1.1" xmlns="http://www.w3.org/2000/svg" width="1280" height="1280">
<path d="M0 0 C63.17321515 -0.03428557 126.34643138 -0.06608364 189.51965332 -0.08468628 C190.45491987 -0.08496239 191.39018643 -0.08523851 192.35379439 -0.08552299 C212.6805843 -0.09150907 233.00737431 -0.0970494 253.33416447 -0.10213066 C263.3026917 -0.10462529 273.2712189 -0.1072184 283.23974609 -0.10986328 C284.72771346 -0.11025556 284.72771346 -0.11025556 286.24574078 -0.11065576 C318.38761134 -0.11917556 350.52947486 -0.13419603 382.67134116 -0.15259444 C415.70651594 -0.17146981 448.74168683 -0.18377325 481.77686692 -0.18782998 C486.44488781 -0.18840627 491.11290869 -0.18905755 495.78092957 -0.18975449 C496.69964587 -0.18988933 497.61836217 -0.19002418 498.56491836 -0.19016311 C513.34239157 -0.1925248 528.11985272 -0.2017962 542.89732102 -0.21366407 C557.76051286 -0.22545286 572.62369277 -0.22993237 587.48688912 -0.22700275 C596.31291548 -0.22548382 605.1388981 -0.22951729 613.96491654 -0.24159509 C619.86851719 -0.24912035 625.77208935 -0.24930945 631.67569201 -0.24366363 C635.03448061 -0.24065766 638.39312016 -0.24183832 641.75191051 -0.24976636 C658.84043329 -0.28774736 675.3085661 -0.05365915 691.875 4.625 C693.26235352 5.01196045 693.26235352 5.01196045 694.67773438 5.40673828 C703.86342821 8.07828101 712.47351645 11.68507004 721 16 C721.94262695 16.47542236 721.94262695 16.47542236 722.90429688 16.96044922 C751.10869553 31.4765338 773.16549039 56.22692271 786 85 C786.81404297 86.78083984 786.81404297 86.78083984 787.64453125 88.59765625 C799.0934682 115.23455007 803.15747264 150.82539317 795 179 C794.62077393 180.33901367 794.62077393 180.33901367 794.23388672 181.70507812 C782.78583161 221.07032027 758.37163228 252.83223887 722.49951172 273.11474609 C712.11655843 278.77534061 701.32823163 282.89358854 689.875 285.8125 C689.11300293 286.00739014 688.35100586 286.20228027 687.56591797 286.40307617 C671.07754753 290.3337457 654.8102186 290.28025827 637.95021057 290.24050903 C635.1942704 290.24026682 632.43833508 290.2430505 629.68239635 290.24568737 C623.70733897 290.24981478 617.73232161 290.2465818 611.75726891 290.23841095 C602.8727183 290.22629531 593.98819269 290.22574356 585.10363533 290.22749493 C570.15533607 290.23011736 555.20705455 290.22346035 540.25876045 290.21146011 C525.46444168 290.19961401 510.67013029 290.19192579 495.87580681 290.18975449 C494.95491729 290.18961701 494.03402778 290.18947953 493.08523252 290.18933788 C488.40823704 290.18866119 483.73124156 290.18805843 479.05424606 290.18748413 C445.9527443 290.18328663 412.85125219 290.1698212 379.74975586 290.15087891 C347.59806367 290.13250141 315.44637412 290.11833841 283.29467773 290.10986328 C282.30310345 290.10960023 281.31152916 290.10933718 280.28990716 290.10906615 C270.33184053 290.10642905 260.37377388 290.10387743 250.4157072 290.10138843 C230.13113682 290.09631641 209.8465666 290.09067391 189.56199646 290.08468628 C188.62940568 290.0844117 187.69681489 290.08413712 186.73596378 290.08385422 C124.49063851 290.06546214 62.24531859 290.03377282 0 290 C-0.79381129 287.50001981 -1.58441438 284.99909612 -2.37329102 282.49755859 C-2.59478065 281.80113754 -2.81627029 281.10471649 -3.04447174 280.38719177 C-5.40295584 272.89116732 -7.24012516 265.29490138 -8.9375 257.625 C-9.10542053 256.87064667 -9.27334106 256.11629333 -9.4463501 255.33908081 C-25.60667423 182.00944819 -25.24565113 105.63648855 -8.9375 32.375 C-8.77795837 31.65408173 -8.61841675 30.93316345 -8.45404053 30.19039917 C-6.73798265 22.52204861 -4.75459125 14.98986888 -2.37329102 7.50244141 C-2.14396126 6.77523392 -1.9146315 6.04802643 -1.67835236 5.29878235 C-1.12085218 3.53190491 -0.56070886 1.7658618 0 0 Z " fill="#221F20" transform="translate(148,495)"/>
<path d="M0 0 C66.16407209 -0.05145239 132.32814657 -0.09914616 198.49223328 -0.12702942 C199.47250254 -0.12744359 200.4527718 -0.12785776 201.4627462 -0.12828448 C222.76998414 -0.13726457 244.07722229 -0.14557492 265.38446077 -0.15319599 C275.8345136 -0.15693778 286.28456639 -0.16082748 296.73461914 -0.16479492 C297.77448885 -0.1651872 298.81435855 -0.16557948 299.88573946 -0.16598364 C333.5512865 -0.17875278 367.21681837 -0.20127554 400.88235623 -0.22889166 C435.49693426 -0.25723451 470.1115039 -0.27566677 504.72609334 -0.28174497 C509.6224868 -0.28260935 514.51888024 -0.28358626 519.41527367 -0.28463173 C520.37889228 -0.284834 521.34251089 -0.28503627 522.33533007 -0.28524467 C537.80615259 -0.28878081 553.27694906 -0.30267059 568.74776098 -0.3204961 C584.32583832 -0.33822193 599.90389002 -0.34488797 615.48197708 -0.34050413 C624.7211842 -0.33823372 633.96029698 -0.34420345 643.19948695 -0.36239263 C649.3925392 -0.37374448 655.58553056 -0.37392021 661.77858722 -0.36549544 C665.29368579 -0.36101923 668.80860759 -0.36093646 672.32368628 -0.37464955 C730.10325635 -0.56017864 786.05366236 13.59480169 832 50 C832.82371094 50.63164063 833.64742187 51.26328125 834.49609375 51.9140625 C845.3594606 60.36141656 855.57116028 69.98077252 865 80 C865.77214844 80.81597656 866.54429687 81.63195312 867.33984375 82.47265625 C869 85 869 85 869.140625 87.3203125 C867.39326008 91.42542324 864.63682376 94.50633897 861.75 97.875 C861.11956787 98.62386475 860.48913574 99.37272949 859.83959961 100.14428711 C857.90279435 102.43799335 855.95250889 104.71965752 854 107 C852.90216739 108.29542348 851.80450096 109.59098781 850.70703125 110.88671875 C837.17943863 126.7596525 822.93231043 142.7680722 807 156.27734375 C804.56610869 158.37372279 802.22865575 160.5639738 799.875 162.75 C794.72882217 167.44252028 789.3564843 171.7520002 783.84301758 176.00268555 C781.3939281 177.90099454 778.97171251 179.82527966 776.57543945 181.78979492 C767.69881606 189.0564475 758.51728388 195.63411872 748.9375 201.9375 C747.86042786 202.64992355 747.86042786 202.64992355 746.76159668 203.3767395 C710.72093894 227.20009848 672.75912324 246.55736959 632 261 C631.02208496 261.34659668 630.04416992 261.69319336 629.03662109 262.05029297 C545.47675173 291.37268655 454.24430802 297.86819496 237.14263916 239.03488159 C223.7719398 232.57691569 210.68080864 225.74077928 198 218 C197.18934082 217.5054834 196.37868164 217.0109668 195.54345703 216.50146484 C172.8470817 202.56509403 151.47342808 187.02350031 131 170 C130.41009277 169.51063965 129.82018555 169.0212793 129.21240234 168.51708984 C112.5054977 154.59859443 95.80598757 139.60933424 81.72265625 123 C79.62627721 120.56610869 77.4360262 118.22865575 75.25 115.875 C69.9715825 110.08551031 65.16842071 103.98663527 60.38671875 97.78515625 C59.03294133 96.04240616 57.66125802 94.31577729 56.28125 92.59375 C36.6647886 68.07052762 20.3888066 41.30290026 5.1875 13.875 C4.40451538 12.47954956 4.40451538 12.47954956 3.60571289 11.0559082 C3.13125732 10.18925537 2.65680176 9.32260254 2.16796875 8.4296875 C1.53797974 7.28862549 1.53797974 7.28862549 0.89526367 6.12451172 C0 4 0 4 0 0 Z " fill="#3DBDAF" transform="translate(179,863)"/>
<path d="M0 0 C0.58990723 0.48936035 1.17981445 0.9787207 1.78759766 1.48291016 C18.4945023 15.40140557 35.19401243 30.39066576 49.27734375 47 C51.37372279 49.43389131 53.5639738 51.77134425 55.75 54.125 C60.61156712 59.44674599 65.05627233 65.03316516 69.45703125 70.73828125 C71.89416036 73.89304621 74.43126042 76.95163939 77 80 C70.56237259 94.4764921 52.31369537 108.63346143 40 118 C39.47035645 118.41137207 38.94071289 118.82274414 38.39501953 119.24658203 C-8.75738977 155.77652252 -63.88947259 170.39685166 -122.72807282 170.24453239 C-126.29937467 170.23756378 -129.87066562 170.24242432 -133.44197011 170.24568737 C-139.68133465 170.24980543 -145.92066078 170.2465981 -152.16002083 170.23841095 C-161.43751212 170.22627133 -170.71497952 170.22574576 -179.9924773 170.22749493 C-195.60358136 170.23011447 -211.21466841 170.22347142 -226.82576752 170.21146011 C-242.27185907 170.19960636 -257.71794354 170.19192425 -273.16403961 170.18975449 C-274.12617583 170.18961701 -275.08831205 170.18947953 -276.07960391 170.18933788 C-280.96625595 170.18866117 -285.85290799 170.18805842 -290.73956004 170.18748413 C-325.30798625 170.18328873 -359.87640321 170.16982919 -394.44482422 170.15087891 C-428.01741487 170.13249584 -461.59000298 170.11833557 -495.16259766 170.10986328 C-496.19833599 170.10960023 -497.23407433 170.10933718 -498.30119867 170.10906615 C-508.70296921 170.106429 -519.10473976 170.10387739 -529.50651033 170.10138843 C-550.69413934 170.09631667 -571.8817682 170.09067417 -593.06939697 170.08468628 C-594.04346598 170.0844117 -595.01753498 170.08413712 -596.02112122 170.08385422 C-661.01408466 170.06546798 -726.00704297 170.03377936 -791 170 C-790.34985058 165.6995067 -789.46620787 162.48188848 -787.40234375 158.640625 C-786.85626465 157.62025146 -786.31018555 156.59987793 -785.74755859 155.54858398 C-785.15023926 154.46005127 -784.55291992 153.37151855 -783.9375 152.25 C-783.00671631 150.54082397 -783.00671631 150.54082397 -782.05712891 148.79711914 C-771.83697559 130.16482283 -760.64599631 112.08654273 -748 95 C-747.48953125 94.30696777 -746.9790625 93.61393555 -746.453125 92.89990234 C-734.41735822 76.59277897 -721.6630321 60.97094628 -708 46 C-707.19433594 45.10152344 -706.38867188 44.20304688 -705.55859375 43.27734375 C-700.12566 37.26144245 -694.5335541 31.43048403 -688.8125 25.6875 C-688.15950928 25.02991699 -687.50651855 24.37233398 -686.83374023 23.69482422 C-682.96301828 19.83628508 -678.9785631 16.16754599 -674.84155273 12.59643555 C-672.38822545 10.46965481 -670.00883251 8.26662822 -667.625 6.0625 C-662.58416753 1.47112447 -657.37171053 -2.80480244 -652 -7 C-650.92902876 -7.85073389 -649.85875455 -8.70234575 -648.7890625 -9.5546875 C-633.72926003 -21.5260707 -618.1200736 -32.49848602 -602 -43 C-601.35756348 -43.41942871 -600.71512695 -43.83885742 -600.05322266 -44.27099609 C-592.70729631 -49.03282353 -585.12510297 -53.0442428 -577.2734375 -56.87890625 C-573.57909394 -58.69201308 -569.95203198 -60.61319225 -566.32836914 -62.56298828 C-482.59781242 -107.49671894 -385.38380247 -125.62430101 0 0 Z " fill="#EFBE1A" transform="translate(970,247)"/>
<path d="M0 0 C29.92004217 -0.04571212 59.84008317 -0.0810641 89.76015279 -0.10213066 C93.29957457 -0.10463181 96.83899629 -0.10722048 100.37841797 -0.10986328 C101.0829967 -0.1103879 101.78757544 -0.11091252 102.51350504 -0.11145304 C113.89349316 -0.12013473 125.2734609 -0.13589227 136.65343696 -0.15430559 C148.34688127 -0.17306708 160.04031497 -0.18412988 171.73377371 -0.18817699 C178.29483124 -0.19077681 184.85584267 -0.1968571 191.41688538 -0.21146011 C197.60231896 -0.22511456 203.78768777 -0.22920684 209.97313499 -0.22621536 C212.23367351 -0.22676202 214.49421436 -0.23069231 216.75473976 -0.23841095 C232.81789568 -0.29053227 248.30598094 0.22802875 263.875 4.625 C264.79990234 4.88297363 265.72480469 5.14094727 266.67773438 5.40673828 C275.86342821 8.07828101 284.47351645 11.68507004 293 16 C293.94262695 16.47542236 293.94262695 16.47542236 294.90429688 16.96044922 C323.10869553 31.4765338 345.16549039 56.22692271 358 85 C358.54269531 86.18722656 359.08539062 87.37445312 359.64453125 88.59765625 C371.0934682 115.23455007 375.15747264 150.82539317 367 179 C366.62077393 180.33901367 366.62077393 180.33901367 366.23388672 181.70507812 C354.78583161 221.07032027 330.37163228 252.83223887 294.49951172 273.11474609 C284.11655843 278.77534061 273.32823163 282.89358854 261.875 285.8125 C261.11300293 286.00739014 260.35100586 286.20228027 259.56591797 286.40307617 C244.24494752 290.05544872 229.20499247 290.28044395 213.54125977 290.22705078 C211.20410161 290.22648566 208.8669431 290.2268052 206.52978516 290.22793579 C200.2271238 290.22850636 193.92453957 290.21680017 187.62189603 290.20278788 C181.68980368 290.19150566 175.75771405 290.18953688 169.82561242 290.18748413 C158.08742187 290.18312281 146.34925935 290.16985646 134.61108398 290.15087891 C123.21850727 290.13247941 111.82593821 290.11834291 100.43334961 290.10986328 C99.37738396 290.10907511 99.37738396 290.10907511 98.30008567 290.10827102 C94.76792035 290.10566066 91.23575497 290.10313331 87.70358956 290.10064721 C58.46904149 290.07996346 29.23452112 290.04463068 0 290 C0.31563808 288.25818112 0.63157344 286.51641612 0.94763184 284.77467346 C1.123536 283.80472222 1.29944016 282.83477098 1.48067474 281.83542728 C2.17964486 278.01916972 2.91288686 274.21016058 3.65625 270.40234375 C3.80404907 269.64256729 3.95184814 268.88279083 4.10412598 268.09999084 C4.4130128 266.51280647 4.72221835 264.92568408 5.03173828 263.33862305 C5.49975033 260.93878027 5.96675668 258.53874347 6.43359375 256.13867188 C6.73696865 254.58072712 7.0403539 253.02278438 7.34375 251.46484375 C7.49078369 250.70835541 7.63781738 249.95186707 7.78930664 249.17245483 C8.53199246 245.36049002 9.29883257 241.55538152 10.09375 237.75390625 C16.08422103 207.73244765 16.47563619 177.13452141 16.3225708 146.65734863 C16.30907678 143.0129824 16.31442583 139.36873675 16.31942654 135.72435665 C16.33922621 116.73843926 16.20566044 97.88404645 14 79 C13.91330048 78.23172882 13.82660095 77.46345764 13.73727417 76.67190552 C13.17747641 71.78937641 12.52217641 66.9252985 11.8125 62.0625 C11.70972748 61.34328369 11.60695496 60.62406738 11.50106812 59.88305664 C9.31130745 44.6750849 6.20050481 29.69916717 2.7902832 14.72265625 C2.12232995 11.57623945 1.52177764 8.43220022 0.9506073 5.26733398 C0.77211337 4.27998764 0.59361944 3.2926413 0.40971661 2.27537537 C0.27451013 1.5245015 0.13930365 0.77362762 0 0 Z " fill="#07A4DD" transform="translate(576,495)"/>
<path d="M0 0 C128.37 0 256.74 0 389 0 C385.62131519 10.13605442 385.62131519 10.13605442 383.43359375 14.86328125 C382.9535791 15.90436035 382.47356445 16.94543945 381.97900391 18.01806641 C381.47030762 19.10522949 380.96161133 20.19239258 380.4375 21.3125 C379.63578369 23.03218994 379.63578369 23.03218994 378.81787109 24.78662109 C377.22136313 28.19563794 375.6137886 31.59913349 374 35 C373.5673584 35.91346191 373.1347168 36.82692383 372.68896484 37.76806641 C365.91179855 51.971364 358.10680115 65.51912749 350 79 C349.43845215 79.93585938 348.8769043 80.87171875 348.29833984 81.8359375 C337.55667798 99.6640028 325.63825655 116.4756713 313 133 C312.54270508 133.5990918 312.08541016 134.19818359 311.61425781 134.81542969 C301.54520527 147.95811671 290.65142739 160.35939454 279.39453125 172.4921875 C277.92337453 174.08284995 276.46101479 175.68126979 275 177.28125 C267.1094907 185.90830756 259.14844035 194.42451873 250.25 202.03125 C247.91034353 204.07844941 245.63783916 206.18544417 243.36621094 208.30737305 C237.11348623 214.14634125 230.72925752 219.70871403 224 225 C223.36191406 225.59683594 222.72382813 226.19367188 222.06640625 226.80859375 C220 228 220 228 217.19921875 227.92578125 C213.41176963 226.82977949 210.19171637 225.16750959 206.8125 223.1875 C206.12542969 222.79224121 205.43835938 222.39698242 204.73046875 221.98974609 C178.62322994 206.81315902 154.20352771 189.29355746 131 170 C130.41009277 169.51063965 129.82018555 169.0212793 129.21240234 168.51708984 C112.5054977 154.59859443 95.80598757 139.60933424 81.72265625 123 C79.62627721 120.56610869 77.4360262 118.22865575 75.25 115.875 C69.9715825 110.08551031 65.16842071 103.98663527 60.38671875 97.78515625 C59.03294133 96.04240616 57.66125802 94.31577729 56.28125 92.59375 C36.6647886 68.07052762 20.3888066 41.30290026 5.1875 13.875 C4.40451538 12.47954956 4.40451538 12.47954956 3.60571289 11.0559082 C3.13125732 10.18925537 2.65680176 9.32260254 2.16796875 8.4296875 C1.53797974 7.28862549 1.53797974 7.28862549 0.89526367 6.12451172 C0 4 0 4 0 0 Z " fill="#019B8F" transform="translate(179,863)"/>
<path d="M0 0 C0 0.66 0 1.32 0 2 C0.58990723 2.27602051 1.17981445 2.55204102 1.78759766 2.83642578 C3.89049919 3.94240997 5.56336523 5.11777987 7.3984375 6.6171875 C8.03555664 7.13555176 8.67267578 7.65391602 9.32910156 8.18798828 C10.34182129 9.02305908 10.34182129 9.02305908 11.375 9.875 C12.43412598 10.74294189 12.43412598 10.74294189 13.51464844 11.62841797 C24.02789037 20.27488855 34.33417933 29.12334814 44.29101562 38.40869141 C45.52416013 39.55692511 46.76020016 40.7020519 47.99804688 41.84521484 C56.56904809 49.7618666 64.866446 57.73662919 72.61816406 66.46533203 C74.68645007 68.76237193 76.81037872 71.0060313 78.92871094 73.25683594 C84.91072171 79.6245607 90.54047713 86.17559641 96 93 C96.99294221 94.20335139 97.98786509 95.40507015 98.984375 96.60546875 C125.62569158 128.80059643 147.23089559 164.59097733 166.0625 201.8125 C166.74227905 203.14547119 166.74227905 203.14547119 167.43579102 204.50537109 C167.86045654 205.35566895 168.28512207 206.2059668 168.72265625 207.08203125 C169.09140869 207.81655518 169.46016113 208.5510791 169.84008789 209.30786133 C171.47693112 213.10695001 172.69185893 217.07557679 174 221 C49.26 221 -75.48 221 -204 221 C-203.18178192 216.09069152 -202.62764236 213.78235032 -200.40234375 209.640625 C-199.85626465 208.62025146 -199.31018555 207.59987793 -198.74755859 206.54858398 C-198.15023926 205.46005127 -197.55291992 204.37151855 -196.9375 203.25 C-196.31697754 202.11054932 -195.69645508 200.97109863 -195.05712891 199.79711914 C-184.83697559 181.16482283 -173.64599631 163.08654273 -161 146 C-160.48953125 145.30696777 -159.9790625 144.61393555 -159.453125 143.89990234 C-147.41735822 127.59277897 -134.6630321 111.97094628 -121 97 C-120.19433594 96.10152344 -119.38867188 95.20304687 -118.55859375 94.27734375 C-113.12566 88.26144245 -107.5335541 82.43048403 -101.8125 76.6875 C-100.83301392 75.70112549 -100.83301392 75.70112549 -99.83374023 74.69482422 C-95.96301828 70.83628508 -91.9785631 67.16754599 -87.84155273 63.59643555 C-85.38822545 61.46965481 -83.00883251 59.26662822 -80.625 57.0625 C-75.58416753 52.47112447 -70.37171053 48.19519756 -65 44 C-63.92902876 43.14926611 -62.85875455 42.29765425 -61.7890625 41.4453125 C-9.65154344 0 -9.65154344 0 0 0 Z " fill="#D7A228" transform="translate(383,196)"/>
<path d="M0 0 C4.21576954 1.51041176 6.05389696 4.5542366 8.4375 8.125 C13.74556401 15.81570098 19.57228182 23.00754425 25.52490234 30.20458984 C26.79898377 31.75533377 28.0519309 33.32339694 29.30078125 34.89453125 C34.93001883 41.96553213 41.06257905 48.50234222 47.27734375 55.0546875 C50.0814413 58.01293513 52.83572982 61.00952573 55.56347656 64.03808594 C59.51885088 68.4263868 63.52328433 72.50796943 68.05078125 76.30078125 C70.25651655 78.22361663 72.2726202 80.27735369 74.3125 82.375 C78.39936189 86.51813537 82.75946453 90.16715452 87.296875 93.8046875 C90.59625357 96.48424062 93.75793177 99.29553235 96.91796875 102.13671875 C99.90310593 104.8082205 102.94936899 107.40371829 106 110 C101.82506731 110 99.97453662 107.70098475 97 105.0625 C95.8302334 104.04594641 94.65964728 103.03033516 93.48828125 102.015625 C92.90256348 101.50580078 92.3168457 100.99597656 91.71337891 100.47070312 C89.25236247 98.3582547 86.71990961 96.33842769 84.1875 94.3125 C80.25882578 91.11831705 76.62910728 87.78945732 73.14453125 84.1171875 C71.24120016 82.23812475 69.28956193 80.5001109 67.265625 78.75390625 C62.9759001 75.02844936 58.94210086 71.090406 54.9375 67.0625 C54.26912109 66.39798828 53.60074219 65.73347656 52.91210938 65.04882812 C48.97060922 61.09966714 45.21871446 57.03975493 41.57446289 52.81518555 C39.52211099 50.44904562 37.38597219 48.16564604 35.25 45.875 C29.97893632 40.09357615 25.18002607 34.003896 20.40429688 27.81152344 C18.99437726 25.99274674 17.57034567 24.18605501 16.140625 22.3828125 C0 2.02147499 0 2.02147499 0 0 Z " fill="#39BBAD" transform="translate(219,933)"/>
<path d="M0 0 C0.66 0.33 1.32 0.66 2 1 C-13.18 16.18 -28.36 31.36 -44 47 C-44.66 46.67 -45.32 46.34 -46 46 C-45.43152344 45.443125 -44.86304688 44.88625 -44.27734375 44.3125 C-43.50519531 43.549375 -42.73304688 42.78625 -41.9375 42 C-41.18339844 41.2575 -40.42929687 40.515 -39.65234375 39.75 C-37.60494107 37.62721431 -35.6718265 35.48601755 -33.75 33.25390625 C-29.72014662 28.61148902 -25.41893192 24.27187404 -21.0625 19.9375 C-20.30259766 19.17373047 -19.54269531 18.40996094 -18.75976562 17.62304688 C-14.52997613 13.40048162 -10.21632511 9.34205288 -5.67553711 5.45507812 C-3.68671907 3.72793904 -1.82385249 1.89984634 0 0 Z " fill="#E1AE22" transform="translate(301,254)"/>
</svg>
