<?xml version="1.0" encoding="UTF-8"?>
<svg version="1.1" xmlns="http://www.w3.org/2000/svg" width="164" height="164">
<path d="M0 0 C2.58414528 1.12493164 4.70324207 2.21460869 7.0625 3.6875 C8.45123988 4.51140021 9.84060283 5.33425077 11.23046875 6.15625 C11.98376465 6.60871094 12.73706055 7.06117188 13.51318359 7.52734375 C18.25128836 10.33317999 23.07171261 12.99535206 27.875 15.6875 C29.76930568 16.75199281 31.6625658 17.81834875 33.5546875 18.88671875 C34.76874268 19.57060669 34.76874268 19.57060669 36.00732422 20.26831055 C37.73465824 21.26781945 39.45000909 22.29018225 41.12721252 23.3717041 C45.71285382 26.2762839 49.95511081 28.41090565 55.14526367 30.03564453 C62.42251831 32.64547543 68.42650788 35.57300891 73 42 C77.84097931 55.07458339 75.91574102 71.0315684 75.40570068 84.67913818 C75.2812905 88.94517713 75.2949627 93.20607169 75.31120014 97.47353935 C75.31544516 101.59626956 75.25271819 105.7157793 75.1679287 109.83755875 C75.13176269 111.80122229 75.11156537 113.7652508 75.10805702 115.72924423 C75.00614118 130.54255386 75.00614118 130.54255386 71.70723343 134.58358955 C68.2022004 137.58093992 64.25591161 139.26279712 60 141 C58.28064578 141.97585019 56.57347874 142.97419004 54.890625 144.01171875 C53.34482384 144.90550561 51.79797367 145.79748107 50.25 146.6875 C49.47785156 147.13416016 48.70570313 147.58082031 47.91015625 148.04101562 C46.37646271 148.92603644 44.84070491 149.80749129 43.30273438 150.68505859 C41.70585252 151.59693367 40.11370144 152.51712408 38.52539062 153.44384766 C37.72810547 153.90194824 36.93082031 154.36004883 36.109375 154.83203125 C35.39233398 155.24815674 34.67529297 155.66428223 33.93652344 156.09301758 C32 157 32 157 29 157 C29 127.63 29 98.26 29 68 C27.35 67.34 25.7 66.68 24 66 C22.51303041 65.21779376 21.04164826 64.40535282 19.5859375 63.56640625 C18.75255859 63.08816406 17.91917969 62.60992187 17.06054688 62.1171875 C16.17431641 61.60414062 15.28808594 61.09109375 14.375 60.5625 C13.44494141 60.02753906 12.51488281 59.49257813 11.55664062 58.94140625 C8.70219017 57.29811094 5.85060477 55.649956 3 54 C2.17532227 53.52288574 1.35064453 53.04577148 0.50097656 52.55419922 C-2.60502103 50.75656308 -5.71038845 48.95784479 -8.81494141 47.15771484 C-28.27968179 35.85109745 -28.27968179 35.85109745 -48 25 C-46.71316457 21.13949371 -45.44499018 20.84559317 -41.92578125 18.92578125 C-40.87189209 18.34393066 -39.81800293 17.76208008 -38.73217773 17.16259766 C-37.60368408 16.55206543 -36.47519043 15.9415332 -35.3125 15.3125 C-33.01770022 14.05695587 -30.72342569 12.80045124 -28.4296875 11.54296875 C-27.31948242 10.93630371 -26.20927734 10.32963867 -25.06542969 9.70458984 C-22.51133842 8.28433935 -20.00052481 6.82502125 -17.5078125 5.30078125 C-16.57714966 4.73653442 -16.57714966 4.73653442 -15.62768555 4.16088867 C-14.06663999 3.20414791 -12.51527017 2.23166773 -10.96484375 1.2578125 C-7.21841902 -0.33157981 -3.97401888 -0.66145003 0 0 Z " fill="#5CE500" transform="translate(86,0)"/>
<path d="M0 0 C2.4710975 1.19933689 4.55057103 2.37035789 6.8125 3.875 C8.12963604 4.70869784 9.44873451 5.5393014 10.76953125 6.3671875 C11.45740723 6.8012793 12.1452832 7.23537109 12.85400391 7.68261719 C16.49690145 9.91891697 20.24926689 11.95162767 24 14 C32.12618807 18.46644149 40.08113291 23.1776762 48 28 C48.87700562 28.40973053 49.75401123 28.81946106 50.65759277 29.24160767 C53 31 53 31 53.62145996 33.71884155 C53.61940552 34.81628693 53.61735107 35.9137323 53.61523438 37.04443359 C53.6291925 38.91184708 53.6291925 38.91184708 53.64343262 40.81698608 C53.6278428 42.17748136 53.61125746 43.53796555 53.59375 44.8984375 C53.59203865 46.29464617 53.59210483 47.69085805 53.59387207 49.08706665 C53.59221802 52.0144116 53.57351112 54.94099148 53.54199219 57.86816406 C53.50238651 61.61313457 53.49793761 65.35709952 53.50545502 69.10223961 C53.50853147 71.98657375 53.49637922 74.87068354 53.47932434 77.75496292 C53.47231078 79.13519507 53.46916781 80.51545266 53.47001648 81.89570236 C53.46821031 83.82946528 53.44451119 85.76316993 53.41992188 87.69677734 C53.41150269 88.7958139 53.4030835 89.89485046 53.39440918 91.02719116 C52.94561868 94.40989229 52.02905776 96.276722 50 99 C47.82724848 100.38425298 45.80339614 101.51609134 43.5 102.625 C42.15955345 103.30092302 40.82110985 103.98082841 39.484375 104.6640625 C38.76701172 105.03047852 38.04964844 105.39689453 37.31054688 105.77441406 C32.1887163 108.49119233 27.22989489 111.51157681 22.25976562 114.49462891 C21.48826172 114.95015137 20.71675781 115.40567383 19.921875 115.875 C19.23706055 116.28492188 18.55224609 116.69484375 17.84667969 117.1171875 C16 118 16 118 13 118 C13 96.88 13 75.76 13 54 C11.02 53.34 9.04 52.68 7 52 C5.05048079 50.88910078 3.1351801 49.71688874 1.25 48.5 C-3.98474864 45.18261237 -9.31819456 42.10787789 -14.75 39.125 C-17.04661097 37.85414613 -19.34226373 36.58157646 -21.63769531 35.30859375 C-23.24509498 34.41817806 -24.85387483 33.53025039 -26.46386719 32.64453125 C-28.85980769 31.31988454 -31.24332345 29.97508707 -33.625 28.625 C-34.36588867 28.22039551 -35.10677734 27.81579102 -35.87011719 27.39892578 C-37.9140625 26.2265625 -37.9140625 26.2265625 -41 24 C-41 22.68 -41 21.36 -41 20 C-39.015625 18.2890625 -39.015625 18.2890625 -36.25 16.625 C-35.24453125 16.01914062 -34.2390625 15.41328125 -33.203125 14.7890625 C-29.20176139 12.55415453 -25.11938776 10.53718998 -20.98828125 8.5546875 C-16.98095358 6.46982944 -13.33688278 3.94827883 -9.66796875 1.3203125 C-6.1358652 -0.42763918 -3.9065288 -0.4745458 0 0 Z " fill="#5CE500" transform="translate(47,46)"/>
<path d="M0 0 C0 15.18 0 30.36 0 46 C-3.21954958 44.71218017 -5.96684238 43.55898014 -8.93359375 41.8984375 C-9.65869141 41.49423584 -10.38378906 41.09003418 -11.13085938 40.67358398 C-11.89205078 40.24505127 -12.65324219 39.81651855 -13.4375 39.375 C-14.22576172 38.93422119 -15.01402344 38.49344238 -15.82617188 38.03930664 C-22.03101346 34.56316809 -28.21002532 31.04238127 -34.375 27.49609375 C-35.89701479 26.62863592 -37.43308913 25.78345544 -39 25 C-38.63455072 22.51349887 -38.38867582 21.31947431 -36.41210938 19.69482422 C-35.72955078 19.3185791 -35.04699219 18.94233398 -34.34375 18.5546875 C-33.57603271 18.12196533 -32.80831543 17.68924316 -32.01733398 17.2434082 C-31.18661377 16.7918335 -30.35589355 16.34025879 -29.5 15.875 C-27.77162663 14.90846133 -26.04377334 13.94099215 -24.31640625 12.97265625 C-22.99406982 12.23813232 -22.99406982 12.23813232 -21.64501953 11.48876953 C-16.7916432 8.75700944 -12.02633459 5.87426782 -7.2578125 2.99755859 C-2.21907672 0 -2.21907672 0 0 0 Z " fill="#5CE500" transform="translate(44,109)"/>
</svg>
