<?xml version="1.0" encoding="UTF-8"?>
<svg version="1.1" xmlns="http://www.w3.org/2000/svg" width="1280" height="1280">
<path d="M0 0 C224.4 0 448.8 0 680 0 C678.19704336 4.50739159 677.12652184 6.26162246 673.9375 9.625 C669.90335746 13.98084449 666.1176233 18.46882419 662.3828125 23.08203125 C659.79244152 26.25417407 657.15317133 29.38043294 654.5 32.5 C651.12703063 36.46891888 647.78823022 40.46017431 644.5 44.5 C640.75212202 49.1045358 636.93016556 53.64019191 633.0859375 58.1640625 C630.18755177 61.5805954 627.328449 65.02504838 624.5 68.5 C620.75212202 73.1045358 616.93016556 77.64019191 613.0859375 82.1640625 C610.18755177 85.5805954 607.328449 89.02504838 604.5 92.5 C600.75212202 97.1045358 596.93016556 101.64019191 593.0859375 106.1640625 C590.18755177 109.5805954 587.328449 113.02504838 584.5 116.5 C580.75212202 121.1045358 576.93016556 125.64019191 573.0859375 130.1640625 C570.18755177 133.5805954 567.328449 137.02504838 564.5 140.5 C560.75212202 145.1045358 556.93016556 149.64019191 553.0859375 154.1640625 C550.18755177 157.5805954 547.328449 161.02504838 544.5 164.5 C541.21176186 168.53983543 537.87265239 172.53080427 534.5 176.5 C530.44987401 181.2691121 526.45647887 186.07912432 522.50390625 190.9296875 C514.69208052 200.50861889 506.84027163 210.05229952 498.83251953 219.46826172 C495.26971596 223.66328182 491.78674425 227.91914278 488.3125 232.1875 C485.27632634 235.88014364 482.1815003 239.52121788 479.0859375 243.1640625 C476.18755177 246.5805954 473.328449 250.02504838 470.5 253.5 C466.75212202 258.1045358 462.93016556 262.64019191 459.0859375 267.1640625 C456.18755177 270.5805954 453.328449 274.02504838 450.5 277.5 C446.75212202 282.1045358 442.93016556 286.64019191 439.0859375 291.1640625 C436.18755177 294.5805954 433.328449 298.02504838 430.5 301.5 C426.75212202 306.1045358 422.93016556 310.64019191 419.0859375 315.1640625 C416.18755177 318.5805954 413.328449 322.02504838 410.5 325.5 C406.75212202 330.1045358 402.93016556 334.64019191 399.0859375 339.1640625 C396.18755177 342.5805954 393.328449 346.02504838 390.5 349.5 C386.75212202 354.1045358 382.93016556 358.64019191 379.0859375 363.1640625 C376.18755177 366.5805954 373.328449 370.02504838 370.5 373.5 C366.75573645 378.10009522 362.93779126 382.63166095 359.09692383 387.15087891 C355.34498559 391.57306503 351.66732754 396.0524476 348.01171875 400.5546875 C346.21302445 402.74106155 344.37102277 404.87565586 342.5 407 C339.86841135 409.78743371 339.86841135 409.78743371 339 413 C340.28692749 413.38478516 340.28692749 413.38478516 341.59985352 413.77734375 C345.15417698 415.05544039 348.14588323 416.65275047 351.40234375 418.5625 C351.99720581 418.90997787 352.59206787 419.25745575 353.20495605 419.61546326 C355.11970948 420.73715022 357.02893645 421.8678175 358.9375 423 C359.58961456 423.38471466 360.24172913 423.76942932 360.91360474 424.165802 C370.48479265 429.81442745 379.91294994 435.59547394 389 442 C389.54479004 442.3810791 390.08958008 442.7621582 390.65087891 443.15478516 C394.79917256 446.05967508 398.90621142 449.01891857 403 452 C403.73798828 452.5367334 404.47597656 453.0734668 405.23632812 453.62646484 C413.97791963 459.99559561 422.65943173 466.42123372 431.12475586 473.15454102 C435.79252872 476.8642903 440.56164297 480.41529016 445.37890625 483.9296875 C448.14889348 486.11760588 450.53028064 488.47867456 453 491 C455.41782078 493.31275966 457.86520552 495.59349796 460.3125 497.875 C460.93833984 498.46152344 461.56417969 499.04804687 462.20898438 499.65234375 C465.33410565 502.5691236 468.48806726 505.43399982 471.73095703 508.21948242 C476.05830719 511.99874418 480.13588277 515.99138162 484.19140625 520.05859375 C485.31481667 521.18056908 485.31481667 521.18056908 486.46092224 522.32521057 C488.03271225 523.89632464 489.60325849 525.46868392 491.17260742 527.04223633 C493.55601304 529.43099846 495.94471068 531.81437446 498.33398438 534.19726562 C499.87011237 535.7340545 501.40593009 537.2711536 502.94140625 538.80859375 C503.64576309 539.51092636 504.35011993 540.21325897 505.07582092 540.93687439 C509.58286699 545.46498724 513.84110011 550.1515799 518 555 C519.0105188 556.15599795 520.02205522 557.31110816 521.03515625 558.46484375 C533.04911651 572.22235336 544.69729499 586.21673529 555.49804688 600.95214844 C556.50887419 602.33037008 557.52326875 603.70598173 558.54101562 605.07910156 C577.2883672 630.37518554 594.14503919 657.24004071 609 685 C609.69923584 686.30590088 609.69923584 686.30590088 610.41259766 687.63818359 C636.8415948 737.2132349 657.32820269 789.52579123 670.9375 844.0625 C671.12313507 844.80532227 671.30877014 845.54814453 671.50003052 846.31347656 C678 872.47782777 678 872.47782777 678 882 C454.26 882 230.52 882 0 882 C0 590.94 0 299.88 0 0 Z " fill="#3DBDAF" transform="translate(300,199)"/>
<path d="M0 0 C224.4 0 448.8 0 680 0 C678.19704336 4.50739159 677.12652184 6.26162246 673.9375 9.625 C669.90335746 13.98084449 666.1176233 18.46882419 662.3828125 23.08203125 C659.79244152 26.25417407 657.15317133 29.38043294 654.5 32.5 C651.12703063 36.46891888 647.78823022 40.46017431 644.5 44.5 C640.75212202 49.1045358 636.93016556 53.64019191 633.0859375 58.1640625 C630.18755177 61.5805954 627.328449 65.02504838 624.5 68.5 C620.75212202 73.1045358 616.93016556 77.64019191 613.0859375 82.1640625 C610.18755177 85.5805954 607.328449 89.02504838 604.5 92.5 C600.75212202 97.1045358 596.93016556 101.64019191 593.0859375 106.1640625 C590.18755177 109.5805954 587.328449 113.02504838 584.5 116.5 C580.75212202 121.1045358 576.93016556 125.64019191 573.0859375 130.1640625 C570.18755177 133.5805954 567.328449 137.02504838 564.5 140.5 C560.75212202 145.1045358 556.93016556 149.64019191 553.0859375 154.1640625 C550.18755177 157.5805954 547.328449 161.02504838 544.5 164.5 C541.21176186 168.53983543 537.87265239 172.53080427 534.5 176.5 C530.44987401 181.2691121 526.45647887 186.07912432 522.50390625 190.9296875 C514.69208052 200.50861889 506.84027163 210.05229952 498.83251953 219.46826172 C495.26971596 223.66328182 491.78674425 227.91914278 488.3125 232.1875 C485.27632634 235.88014364 482.1815003 239.52121788 479.0859375 243.1640625 C476.18755177 246.5805954 473.328449 250.02504838 470.5 253.5 C466.75212202 258.1045358 462.93016556 262.64019191 459.0859375 267.1640625 C456.18755177 270.5805954 453.328449 274.02504838 450.5 277.5 C446.75212202 282.1045358 442.93016556 286.64019191 439.0859375 291.1640625 C436.18755177 294.5805954 433.328449 298.02504838 430.5 301.5 C426.75212202 306.1045358 422.93016556 310.64019191 419.0859375 315.1640625 C416.18755177 318.5805954 413.328449 322.02504838 410.5 325.5 C406.75212202 330.1045358 402.93016556 334.64019191 399.0859375 339.1640625 C396.18755177 342.5805954 393.328449 346.02504838 390.5 349.5 C386.75212202 354.1045358 382.93016556 358.64019191 379.0859375 363.1640625 C376.18755177 366.5805954 373.328449 370.02504838 370.5 373.5 C367.21176003 377.53983767 363.87258497 381.53074485 360.5 385.5 C353.1334666 394.17704942 345.9330564 402.97142173 339 412 C335.37762766 411.41124418 332.52943876 410.4295976 329.28125 408.734375 C328.3644043 408.26314209 327.44755859 407.79190918 326.50292969 407.30639648 C325.51196289 406.79278564 324.52099609 406.2791748 323.5 405.75 C297.13672774 392.35601778 269.96579621 380.91919489 242.07324219 371.11328125 C239.40630686 370.14718456 236.79633508 369.1113898 234.1875 368 C226.98993476 365.07891021 219.46269671 363.11876083 212 361 C210.24205679 360.49654992 208.48424811 359.99262993 206.7265625 359.48828125 C203.12641443 358.45590021 199.52469596 357.42926101 195.921875 356.40625 C193.0514676 355.58987557 190.18832792 354.75822534 187.328125 353.90625 C126.43418255 335.84201827 63.07316551 332.34198224 0 331 C0 221.77 0 112.54 0 0 Z " fill="#E8468A" transform="translate(300,199)"/>
<path d="M0 0 C53.59716531 0 103.97136623 2.93972744 156.11083984 14.36767578 C158.9221062 14.98295209 161.73619587 15.58371495 164.55078125 16.18359375 C177.28747117 18.94303921 189.73145144 22.44214929 202.21240234 26.17871094 C206.31318536 27.38689399 210.43684296 28.50544793 214.5625 29.625 C225.61021797 32.65838278 236.26893113 36.247238 246.83203125 40.69287109 C250.83203875 42.34330575 254.87348432 43.86539563 258.92504883 45.38378906 C279.39954951 53.07586667 299.22897245 62.10488097 318.9375 71.5625 C319.56854645 71.86418091 320.1995929 72.16586182 320.84976196 72.47668457 C322.64058548 73.33480403 324.42779378 74.20045574 326.21484375 75.06640625 C327.23698975 75.56084229 328.25913574 76.05527832 329.31225586 76.56469727 C331.75222668 77.86768468 333.8481794 79.27078401 336 81 C334.34813658 84.91727612 331.69572868 87.89084239 328.9375 91.0625 C327.93675749 92.22852982 326.93676802 93.39520632 325.9375 94.5625 C325.43992187 95.14257812 324.94234375 95.72265625 324.4296875 96.3203125 C322.39829323 98.70692326 320.41590951 101.1318826 318.4375 103.5625 C314.48382091 108.4182663 310.47898467 113.22932035 306.46484375 118.03515625 C304.14735236 120.82275683 301.85137447 123.62638679 299.5625 126.4375 C295.79051306 131.06101133 291.94809616 135.61968825 288.08398438 140.16601562 C285.20467206 143.55934744 282.36803018 146.98258851 279.5625 150.4375 C276.07129642 154.73099093 272.49085579 158.93686657 268.875 163.125 C265.05956296 167.5473037 261.3744845 172.02226972 257.83203125 176.66796875 C255.04773323 180.21216047 252.11305957 183.62739811 249.19165039 187.05834961 C244.72091775 192.31285732 240.35166103 197.64651773 236 203 C230.76081592 209.44532718 225.46460425 215.83422912 220.08642578 222.16357422 C217.18780161 225.58020732 214.32859421 229.02486997 211.5 232.5 C207.75212202 237.1045358 203.93016556 241.64019191 200.0859375 246.1640625 C196.44140593 250.46013044 192.8721266 254.81368341 189.31640625 259.18359375 C186.72212734 262.33785192 184.08393735 265.4520298 181.4375 268.5625 C178.23260809 272.33088939 175.07312306 276.12246028 172 280 C168.47116597 284.45253701 164.81770671 288.78685979 161.13671875 293.11328125 C158.21995487 296.54571609 155.34306574 300.00592815 152.5 303.5 C149.19375926 307.5633048 145.83183571 311.57299309 142.4375 315.5625 C139.23260809 319.33088939 136.07312306 323.12246028 133 327 C129.47116597 331.45253701 125.81770671 335.78685979 122.13671875 340.11328125 C118.468844 344.42962004 114.87873679 348.8047916 111.3046875 353.19921875 C108.77966925 356.26775787 106.20515231 359.29039812 103.625 362.3125 C99.84207508 366.74851603 96.19467263 371.26600643 92.625 375.875 C88.16948329 381.62027155 83.48856595 387.13095441 78.70019531 392.60058594 C74.78058356 397.08114391 70.98011879 401.6420339 67.234375 406.26953125 C64.73841374 409.31966573 62.18460129 412.31584992 59.625 415.3125 C55.84196554 419.74841723 52.19466784 424.26601262 48.625 428.875 C44.16948329 434.62027155 39.48856595 440.13095441 34.70019531 445.60058594 C30.7848819 450.07623043 26.9887076 454.63229318 23.24609375 459.25390625 C20.22489509 462.94765001 17.12981737 466.57649414 14.03491211 470.20849609 C10.43552649 474.44719175 6.96745004 478.77792303 3.55859375 483.171875 C2 485 2 485 0 486 C0 325.62 0 165.24 0 0 Z " fill="#353535" transform="translate(300,530)"/>
<path d="M0 0 C3.82572656 0.59067748 6.66843907 1.70696704 10.03515625 3.6015625 C10.99695801 4.14200195 11.95875977 4.68244141 12.94970703 5.23925781 C18.14185563 8.23635847 23.29985805 11.28545068 28.4375 14.375 C29.47970703 14.99632812 30.52191406 15.61765625 31.59570312 16.2578125 C53.77202041 29.56635257 74.89201554 45.03769662 95.11376953 61.14794922 C97.88384384 63.35229832 100.67297439 65.51485845 103.52734375 67.609375 C104.37244507 68.23042114 104.37244507 68.23042114 105.23461914 68.86401367 C106.77469383 69.98921484 108.32074177 71.10622742 109.8671875 72.22265625 C110.57101562 72.80917969 111.27484375 73.39570312 112 74 C112 76 112 76 109.86328125 78.20703125 C108.91839844 79.12871094 107.97351563 80.05039062 107 81 C105.01705341 83.19052021 103.10194318 85.43704872 101.1875 87.6875 C100.65906494 88.30616943 100.13062988 88.92483887 99.58618164 89.56225586 C95.98942543 93.79054128 92.49634476 98.08968817 89.0546875 102.4453125 C86.60811491 105.48724876 84.09163683 108.46416077 81.5625 111.4375 C77.49025536 116.2266207 73.47518265 121.0561712 69.50390625 125.9296875 C61.68971525 135.51151921 53.83306826 145.05570308 45.82592773 154.47705078 C42.33583103 158.58856592 38.91060741 162.74901309 35.50390625 166.9296875 C27.68971525 176.51151921 19.83306826 186.05570308 11.82592773 195.47705078 C8.33583103 199.58856592 4.91060741 203.74901309 1.50390625 207.9296875 C-6.31028475 217.51151921 -14.16693174 227.05570308 -22.17407227 236.47705078 C-25.66416897 240.58856592 -29.08939259 244.74901309 -32.49609375 248.9296875 C-40.31028475 258.51151921 -48.16693174 268.05570308 -56.17407227 277.47705078 C-59.66416897 281.58856592 -63.08939259 285.74901309 -66.49609375 289.9296875 C-74.31028475 299.51151921 -82.16693174 309.05570308 -90.17407227 318.47705078 C-93.66416897 322.58856592 -97.08939259 326.74901309 -100.49609375 330.9296875 C-108.31028475 340.51151921 -116.16693174 350.05570308 -124.17407227 359.47705078 C-127.66416897 363.58856592 -131.08939259 367.74901309 -134.49609375 371.9296875 C-142.31028475 381.51151921 -150.16693174 391.05570308 -158.17407227 400.47705078 C-161.66416897 404.58856592 -165.08939259 408.74901309 -168.49609375 412.9296875 C-175.86686825 421.96779789 -183.26073599 430.98724781 -190.8125 439.875 C-194.08618954 443.7306394 -197.34547751 447.59682936 -200.5625 451.5 C-201.26730499 452.32389725 -201.97210999 453.14779449 -202.69827271 453.99665833 C-205.09721716 456.92781849 -205.09721716 456.92781849 -206.65597534 460.33622742 C-208.93479454 464.43488754 -210.94260267 467.54137327 -215 470 C-223.79977146 472.4440087 -233.41539656 471.50770734 -242.4453125 471.26953125 C-245.14382364 471.23800217 -247.84232697 471.22612934 -250.54098511 471.21379089 C-256.89922791 471.17353999 -263.25453079 471.06709167 -269.61148441 470.93624753 C-276.85420821 470.79043988 -284.09707992 470.71934202 -291.34090829 470.65420687 C-306.22890447 470.51867875 -321.11415691 470.29034244 -336 470 C-336.1626827 461.66339413 -336.28681386 453.32745877 -336.3626852 444.98965454 C-336.3991131 441.1173672 -336.44846468 437.24617108 -336.52807617 433.37451172 C-336.60452025 429.63318272 -336.64606873 425.89289847 -336.6641407 422.15084839 C-336.67700713 420.72825686 -336.70213374 419.30571818 -336.7401104 417.88357544 C-337.06099572 405.36127089 -337.06099572 405.36127089 -332.59667969 400.23095703 C-331.41795453 399.13193468 -330.22106974 398.05177555 -329 397 C-327.59353016 395.30041298 -326.19634104 393.59306212 -324.8125 391.875 C-321.27454678 387.52337781 -317.66107348 383.24767664 -314 379 C-309.75461036 374.06972024 -305.57937381 369.09315649 -301.4765625 364.04296875 C-297.72461551 359.43292663 -293.93858469 354.85106045 -290.15722656 350.26513672 C-286.88268864 346.29194807 -283.62150872 342.3086571 -280.375 338.3125 C-276.47397584 333.53410796 -272.46093397 328.85828027 -268.43652344 324.18408203 C-264.71682522 319.85624268 -261.07505626 315.47238744 -257.4765625 311.04296875 C-253.72461551 306.43292663 -249.93858469 301.85106045 -246.15722656 297.26513672 C-242.88268864 293.29194807 -239.62150872 289.3086571 -236.375 285.3125 C-232.47397584 280.53410796 -228.46093397 275.85828027 -224.43652344 271.18408203 C-220.71682522 266.85624268 -217.07505626 262.47238744 -213.4765625 258.04296875 C-209.72461551 253.43292663 -205.93858469 248.85106045 -202.15722656 244.26513672 C-198.88268864 240.29194807 -195.62150872 236.3086571 -192.375 232.3125 C-188.97913669 228.15288304 -185.50324035 224.06896744 -182 220 C-176.39734326 213.4914563 -170.93753868 206.8790092 -165.54394531 200.19580078 C-159.21248959 192.35150189 -152.83032285 184.57015215 -146.24121094 176.94042969 C-142.50606995 172.61044209 -138.87270385 168.20629177 -135.26953125 163.765625 C-132.7590028 160.70632355 -130.19490749 157.69684275 -127.625 154.6875 C-123.73656393 150.12871446 -119.98810964 145.48180463 -116.3125 140.75 C-112.67920425 136.07407312 -108.93171372 131.57780537 -104.94921875 127.19140625 C-101.99095359 123.86558109 -99.21311568 120.39822928 -96.41015625 116.94140625 C-93.85411065 113.82195351 -91.24443227 110.75358912 -88.625 107.6875 C-84.84192098 103.25162082 -81.19466645 98.73398558 -77.625 94.125 C-73.16948329 88.37972845 -68.48856595 82.86904559 -63.70019531 77.39941406 C-59.78058356 72.91885609 -55.98011879 68.3579661 -52.234375 63.73046875 C-49.73841374 60.68033427 -47.18460129 57.68415008 -44.625 54.6875 C-40.84196554 50.25158277 -37.19466784 45.73398738 -33.625 41.125 C-29.1726199 35.38377302 -24.49391618 29.87808708 -19.71118164 24.41040039 C-12.81708895 16.52450057 -6.18196793 8.460811 0 0 Z " fill="#37A494" transform="translate(636,611)"/>
</svg>
