<?xml version="1.0" encoding="UTF-8"?>
<!DOCTYPE svg PUBLIC "-//W3C//DTD SVG 1.1//EN" "http://www.w3.org/Graphics/SVG/1.1/DTD/svg11.dtd">
<svg xmlns="http://www.w3.org/2000/svg" version="1.1" width="1161px" height="1101px" style="shape-rendering:geometricPrecision; text-rendering:geometricPrecision; image-rendering:optimizeQuality; fill-rule:evenodd; clip-rule:evenodd" xmlns:xlink="http://www.w3.org/1999/xlink">
<g><path style="opacity:0.753" fill="#19a355" d="M 570.5,7.5 C 569.566,8.56764 569.232,9.90097 569.5,11.5C 568.5,11.5 567.5,11.5 566.5,11.5C 566.768,13.099 566.434,14.4324 565.5,15.5C 565.802,10.7863 566.468,6.11967 567.5,1.5C 569.038,3.24334 570.038,5.24334 570.5,7.5 Z"/></g>
<g><path style="opacity:1" fill="#0d974c" d="M 570.5,14.5 C 571.812,15.1451 572.812,16.1451 573.5,17.5C 573.61,27.6626 573.61,37.996 573.5,48.5C 572.174,37.3391 571.174,26.0058 570.5,14.5 Z"/></g>
<g><path style="opacity:1" fill="#119250" d="M 570.5,7.5 C 577.224,21.95 584.724,35.95 593,49.5C 606.967,65.1347 621.3,80.468 636,95.5C 679.414,147.324 709.414,206.324 726,272.5C 750.11,372.067 736.443,466.067 685,554.5C 662.981,591.357 634.481,622.357 599.5,647.5C 598.167,646.833 596.833,646.167 595.5,645.5C 594.5,644.167 593.5,642.833 592.5,641.5C 591.854,639.844 591.187,638.177 590.5,636.5C 591.731,631.499 591.731,626.499 590.5,621.5C 588.533,622.953 586.367,623.953 584,624.5C 583.667,622.167 583.333,619.833 583,617.5C 582.583,616.244 581.75,615.577 580.5,615.5C 579.566,614.432 579.232,613.099 579.5,611.5C 577.301,600.628 576.134,589.628 576,578.5C 575.796,575.203 574.963,572.203 573.5,569.5C 573.5,567.5 573.5,565.5 573.5,563.5C 573.176,556.646 573.509,549.979 574.5,543.5C 575.824,530.354 576.491,517.021 576.5,503.5C 577.482,500.038 577.815,496.371 577.5,492.5C 578.333,430.335 578.833,368.001 579,305.5C 579.333,298.5 579.667,291.5 580,284.5C 580.87,283.892 581.37,283.059 581.5,282C 578.881,276.859 578.881,271.692 581.5,266.5C 580.388,264.61 579.554,262.61 579,260.5C 577.297,214.036 576.13,167.703 575.5,121.5C 575.291,97.1521 574.624,72.8188 573.5,48.5C 573.61,37.996 573.61,27.6626 573.5,17.5C 572.812,16.1451 571.812,15.1451 570.5,14.5C 570.737,13.209 570.404,12.209 569.5,11.5C 569.232,9.90097 569.566,8.56764 570.5,7.5 Z"/></g>
<g><path style="opacity:1" fill="#11a950" d="M 569.5,11.5 C 570.404,12.209 570.737,13.209 570.5,14.5C 571.174,26.0058 572.174,37.3391 573.5,48.5C 574.624,72.8188 575.291,97.1521 575.5,121.5C 576.948,245.162 577.615,368.828 577.5,492.5C 577.815,496.371 577.482,500.038 576.5,503.5C 574.519,516.458 573.852,529.791 574.5,543.5C 573.509,549.979 573.176,556.646 573.5,563.5C 571.864,567.21 571.198,571.21 571.5,575.5C 570.838,579.466 570.505,583.466 570.5,587.5C 568.973,591.213 567.973,595.213 567.5,599.5C 566.505,604.792 566.172,610.125 566.5,615.5C 565.883,615.611 565.383,615.944 565,616.5C 564.502,619.817 564.335,623.15 564.5,626.5C 564.5,627.833 564.5,629.167 564.5,630.5C 564.5,630.833 564.5,631.167 564.5,631.5C 562.68,638.86 560.347,646.193 557.5,653.5C 488.003,602.112 440.837,534.779 416,451.5C 395.207,357.161 404.541,265.828 444,177.5C 461.897,139.303 484.897,104.636 513,73.5C 527.617,58.7053 542.617,44.372 558,30.5C 561.079,25.6764 563.579,20.6764 565.5,15.5C 566.434,14.4324 566.768,13.099 566.5,11.5C 567.5,11.5 568.5,11.5 569.5,11.5 Z"/></g>
<g><path style="opacity:1" fill="#10974e" d="M 575.5,121.5 C 576.13,167.703 577.297,214.036 579,260.5C 579.554,262.61 580.388,264.61 581.5,266.5C 578.881,271.692 578.881,276.859 581.5,282C 581.37,283.059 580.87,283.892 580,284.5C 579.667,291.5 579.333,298.5 579,305.5C 578.833,368.001 578.333,430.335 577.5,492.5C 577.615,368.828 576.948,245.162 575.5,121.5 Z"/></g>
<g><path style="opacity:1" fill="#13a251" d="M 576.5,503.5 C 576.491,517.021 575.824,530.354 574.5,543.5C 573.852,529.791 574.519,516.458 576.5,503.5 Z"/></g>
<g><path style="opacity:1" fill="#7dc69d" d="M 573.5,563.5 C 573.5,565.5 573.5,567.5 573.5,569.5C 573.5,571.167 573.5,572.833 573.5,574.5C 572.833,574.833 572.167,575.167 571.5,575.5C 571.198,571.21 571.864,567.21 573.5,563.5 Z"/></g>
<g><path style="opacity:1" fill="#2f915e" d="M 573.5,569.5 C 574.963,572.203 575.796,575.203 576,578.5C 576.134,589.628 577.301,600.628 579.5,611.5C 578.251,608.913 577.251,606.246 576.5,603.5C 576.5,602.833 576.5,602.167 576.5,601.5C 575.565,592.477 574.565,583.477 573.5,574.5C 573.5,572.833 573.5,571.167 573.5,569.5 Z"/></g>
<g><path style="opacity:1" fill="#9eccb4" d="M 573.5,574.5 C 574.565,583.477 575.565,592.477 576.5,601.5C 574.923,597.758 573.756,593.758 573,589.5C 572.667,589.833 572.333,590.167 572,590.5C 571.101,597.489 570.267,604.489 569.5,611.5C 568.828,612.949 568.161,614.282 567.5,615.5C 568.5,606.167 569.5,596.834 570.5,587.5C 570.505,583.466 570.838,579.466 571.5,575.5C 572.167,575.167 572.833,574.833 573.5,574.5 Z"/></g>
<g><path style="opacity:1" fill="#25a257" d="M 570.5,587.5 C 569.5,596.834 568.5,606.167 567.5,615.5C 567.167,615.5 566.833,615.5 566.5,615.5C 566.172,610.125 566.505,604.792 567.5,599.5C 567.973,595.213 568.973,591.213 570.5,587.5 Z"/></g>
<g><path style="opacity:1" fill="#1da05b" d="M 566.5,615.5 C 566.354,619.387 565.687,623.054 564.5,626.5C 564.335,623.15 564.502,619.817 565,616.5C 565.383,615.944 565.883,615.611 566.5,615.5 Z"/></g>
<g><path style="opacity:1" fill="#9fc8b4" d="M 576.5,603.5 C 577.251,606.246 578.251,608.913 579.5,611.5C 579.232,613.099 579.566,614.432 580.5,615.5C 580.833,618.167 581.167,620.833 581.5,623.5C 577.501,617.583 575.835,610.917 576.5,603.5 Z"/></g>
<g><path style="opacity:1" fill="#8acaaa" d="M 566.5,615.5 C 566.833,615.5 567.167,615.5 567.5,615.5C 567.494,620.215 566.994,624.882 566,629.5C 565.617,630.056 565.117,630.389 564.5,630.5C 564.5,629.167 564.5,627.833 564.5,626.5C 565.687,623.054 566.354,619.387 566.5,615.5 Z"/></g>
<g><path style="opacity:1" fill="#1a8f55" d="M 580.5,615.5 C 581.75,615.577 582.583,616.244 583,617.5C 583.333,619.833 583.667,622.167 584,624.5C 586.367,623.953 588.533,622.953 590.5,621.5C 591.731,626.499 591.731,631.499 590.5,636.5C 591.187,638.177 591.854,639.844 592.5,641.5C 588.76,637.689 585.76,633.356 583.5,628.5C 583.204,626.597 582.537,624.93 581.5,623.5C 581.167,620.833 580.833,618.167 580.5,615.5 Z"/></g>
<g><path style="opacity:0.982" fill="#b8c4c1" d="M 576.5,601.5 C 576.5,602.167 576.5,602.833 576.5,603.5C 575.835,610.917 577.501,617.583 581.5,623.5C 582.537,624.93 583.204,626.597 583.5,628.5C 584.203,632.647 585.203,636.647 586.5,640.5C 589.25,640.618 591.25,641.951 592.5,644.5C 593.325,645.386 594.325,645.719 595.5,645.5C 596.833,646.167 598.167,646.833 599.5,647.5C 592.546,678.889 587.213,710.556 583.5,742.5C 578.167,742.5 572.833,742.5 567.5,742.5C 565.043,713.382 561.709,684.382 557.5,655.5C 558.5,655.5 559.5,655.5 560.5,655.5C 562.003,647.448 563.337,639.448 564.5,631.5C 564.5,631.167 564.5,630.833 564.5,630.5C 565.117,630.389 565.617,630.056 566,629.5C 566.994,624.882 567.494,620.215 567.5,615.5C 568.161,614.282 568.828,612.949 569.5,611.5C 570.267,604.489 571.101,597.489 572,590.5C 572.333,590.167 572.667,589.833 573,589.5C 573.756,593.758 574.923,597.758 576.5,601.5 Z"/></g>
<g><path style="opacity:1" fill="#a6c8ba" d="M 583.5,628.5 C 585.76,633.356 588.76,637.689 592.5,641.5C 593.5,642.833 594.5,644.167 595.5,645.5C 594.325,645.719 593.325,645.386 592.5,644.5C 591.25,641.951 589.25,640.618 586.5,640.5C 585.203,636.647 584.203,632.647 583.5,628.5 Z"/></g>
<g><path style="opacity:1" fill="#a1c6b4" d="M 564.5,631.5 C 563.337,639.448 562.003,647.448 560.5,655.5C 559.5,655.5 558.5,655.5 557.5,655.5C 557.5,654.833 557.5,654.167 557.5,653.5C 560.347,646.193 562.68,638.86 564.5,631.5 Z"/></g>
<g><path style="opacity:0.984" fill="#21303d" d="M 775.5,866.5 C 805.491,867.445 835.491,867.611 865.5,867C 902.82,868.346 927.654,886.513 940,921.5C 945.598,944.999 943.264,967.666 933,989.5C 916.785,1014.71 893.619,1028.87 863.5,1032C 853.692,1032.97 843.859,1033.47 834,1033.5C 814.505,1032.81 795.005,1032.48 775.5,1032.5C 774.957,1027.96 776.29,1024.13 779.5,1021C 784.519,1020.88 789.185,1019.55 793.5,1017C 794.717,1015.35 795.55,1013.52 796,1011.5C 797.553,972.515 797.887,933.515 797,894.5C 797.035,885.533 792.535,880.699 783.5,880C 779.21,879.077 774.877,878.577 770.5,878.5C 771.611,874.277 773.278,870.277 775.5,866.5 Z M 832.5,879.5 C 850.504,878.334 867.504,881.834 883.5,890C 904.241,904.644 914.574,924.811 914.5,950.5C 914.683,969.466 909.183,986.466 898,1001.5C 878.345,1020.43 855.845,1024.6 830.5,1014C 827.533,1011.9 825.7,1009.07 825,1005.5C 823.054,964.834 823.054,924.167 825,883.5C 827.113,881.267 829.613,879.933 832.5,879.5 Z"/></g>
<g><path style="opacity:0.977" fill="#21303d" d="M 967.5,880.5 C 965.71,879.239 964.043,877.739 962.5,876C 961.207,875.51 959.873,875.343 958.5,875.5C 958.744,872.737 960.077,870.571 962.5,869C 967.489,868.501 972.489,868.334 977.5,868.5C 999.83,867.705 1022.16,867.539 1044.5,868C 1057.8,868.757 1068.97,873.924 1078,883.5C 1090.67,907.471 1085.17,925.971 1061.5,939C 1091.76,948.253 1102.59,968.087 1094,998.5C 1084.92,1014.57 1071.42,1025.07 1053.5,1030C 1048.24,1031.39 1042.91,1032.39 1037.5,1033C 1010.16,1033.65 982.827,1033.48 955.5,1032.5C 955.332,1028.83 956.332,1025.5 958.5,1022.5C 964.229,1021.21 969.896,1019.71 975.5,1018C 977.774,1015.66 978.941,1012.82 979,1009.5C 979.19,974.653 979.69,939.819 980.5,905C 979.823,898.85 979.323,892.683 979,886.5C 976.383,882.274 972.55,880.274 967.5,880.5 Z M 1010.5,880.5 C 1022.79,879.563 1034.45,881.73 1045.5,887C 1056.28,896.205 1059.78,907.705 1056,921.5C 1052.83,930.837 1046.33,936.004 1036.5,937C 1026.59,937.818 1016.76,937.651 1007,936.5C 1006.33,919.167 1006.33,901.833 1007,884.5C 1007.69,882.65 1008.86,881.316 1010.5,880.5 Z M 1007.5,950.5 C 1019.29,949.937 1030.95,950.771 1042.5,953C 1062.25,959.323 1070.75,972.823 1068,993.5C 1063.47,1011.17 1051.97,1020.17 1033.5,1020.5C 1027.79,1019.93 1022.12,1019.1 1016.5,1018C 1011.58,1015.67 1008.41,1011.84 1007,1006.5C 1006.18,987.76 1006.35,969.093 1007.5,950.5 Z"/></g>
<g><path style="opacity:1" fill="#203040" d="M 786.5,871.5 C 803.17,871.333 819.837,871.5 836.5,872C 837.071,873.205 837.738,874.372 838.5,875.5C 839.148,873.851 840.148,872.518 841.5,871.5C 842.086,871.709 842.586,872.043 843,872.5C 843.495,874.473 843.662,876.473 843.5,878.5C 838.156,878.334 832.823,878.501 827.5,879C 826.069,879.465 824.903,880.299 824,881.5C 820.26,880.206 816.26,879.539 812,879.5C 806.678,879.286 801.511,879.953 796.5,881.5C 792.056,880.111 787.723,878.444 783.5,876.5C 784.994,875.095 785.994,873.429 786.5,871.5 Z"/></g>
<g><path style="opacity:1" fill="#223135" d="M 977.5,868.5 C 972.489,868.334 967.489,868.501 962.5,869C 960.077,870.571 958.744,872.737 958.5,875.5C 959.873,875.343 961.207,875.51 962.5,876C 964.043,877.739 965.71,879.239 967.5,880.5C 963.523,879.741 959.523,879.075 955.5,878.5C 955.841,874.646 957.174,871.146 959.5,868C 965.681,867.181 971.681,867.347 977.5,868.5 Z"/></g>
<g><path style="opacity:0.98" fill="#21303d" d="M 22.5,999.5 C 24.0392,996.135 24.7058,992.469 24.5,988.5C 24.2907,984.149 23.9573,979.815 23.5,975.5C 24.8333,975.5 26.1667,975.5 27.5,975.5C 27.5,964.833 27.5,954.167 27.5,943.5C 28.8333,943.5 30.1667,943.5 31.5,943.5C 31.5,938.833 31.5,934.167 31.5,929.5C 28.6711,929.325 27.0045,930.658 26.5,933.5C 25.1934,934.816 23.6934,935.816 22,936.5C 22.9987,943.318 23.4987,950.318 23.5,957.5C 23.4992,962.346 23.1659,967.012 22.5,971.5C 22.9381,963.057 22.4381,954.723 21,946.5C 16.0569,942.849 10.5569,940.349 4.5,939C 2.6751,937.534 2.1751,935.701 3,933.5C 16.2706,930.389 29.4372,926.723 42.5,922.5C 43.086,922.709 43.586,923.043 44,923.5C 44.7722,927.89 44.6055,932.223 43.5,936.5C 43.8333,937.5 44.5,938.167 45.5,938.5C 54.7279,931.219 65.0613,926.053 76.5,923C 83.8385,921.768 90.8385,922.768 97.5,926C 102.675,930.009 107.342,934.509 111.5,939.5C 122.842,930.411 135.676,924.745 150,922.5C 169.66,924.157 180.994,934.823 184,954.5C 184.333,974.833 184.667,995.167 185,1015.5C 186.251,1018.38 188.417,1020.21 191.5,1021C 195.095,1021.58 198.595,1022.42 202,1023.5C 202.741,1026.56 202.575,1029.56 201.5,1032.5C 183.266,1032.53 165.099,1032.53 147,1032.5C 146.179,1029.45 146.345,1026.45 147.5,1023.5C 152.627,1022.77 157.127,1020.77 161,1017.5C 161.333,1016.17 161.667,1014.83 162,1013.5C 162.667,997.167 162.667,980.833 162,964.5C 158.284,943.382 146.117,936.216 125.5,943C 120.545,944.63 116.545,947.464 113.5,951.5C 114.322,972.79 114.822,994.124 115,1015.5C 115.583,1017 116.416,1018.33 117.5,1019.5C 121.922,1021.15 126.422,1022.48 131,1023.5C 131.741,1026.56 131.575,1029.56 130.5,1032.5C 112.232,1032.21 93.8983,1032.55 75.5,1033.5C 75.1796,1030.1 75.513,1026.77 76.5,1023.5C 80.8911,1022.52 85.2244,1021.36 89.5,1020C 90.8932,1018.83 91.7265,1017.33 92,1015.5C 93.7583,996.826 93.7583,978.159 92,959.5C 87.8451,942.669 77.3451,936.502 60.5,941C 54.8036,942.93 49.6369,945.764 45,949.5C 43.1015,972.139 43.1015,994.806 45,1017.5C 49.0969,1021.07 53.9303,1022.91 59.5,1023C 60.6168,1026.07 60.7835,1029.24 60,1032.5C 41.5824,1032.17 23.0824,1032.51 4.5,1033.5C 2.97376,1029.95 3.3071,1026.62 5.5,1023.5C 10.6789,1022.67 15.5122,1021 20,1018.5C 21.4892,1012.28 22.3225,1005.95 22.5,999.5 Z"/></g>
<g><path style="opacity:0.979" fill="#21303c" d="M 545.5,922.5 C 550.844,922.334 556.177,922.501 561.5,923C 569.944,924.926 578.278,927.259 586.5,930C 595.459,931.967 603.459,930.134 610.5,924.5C 613.6,932.267 611.934,938.767 605.5,944C 600.502,945.398 595.502,945.898 590.5,945.5C 596.094,969.141 588.094,986.307 566.5,997C 558.058,1000.02 549.392,1002.02 540.5,1003C 535.054,1005.69 534.387,1009.19 538.5,1013.5C 540.385,1014.61 542.385,1015.44 544.5,1016C 558.21,1016.91 571.877,1018.24 585.5,1020C 600.974,1022.64 609.307,1031.81 610.5,1047.5C 608.282,1066.09 598.949,1079.93 582.5,1089C 564.089,1098.8 544.756,1101.14 524.5,1096C 509.874,1090.91 501.207,1080.75 498.5,1065.5C 498.896,1061.58 500.063,1057.91 502,1054.5C 509.25,1047.25 517.083,1040.75 525.5,1035C 521.411,1032.87 517.577,1030.37 514,1027.5C 511.683,1024.53 510.183,1021.2 509.5,1017.5C 509.39,1015.63 510.056,1014.13 511.5,1013C 517.55,1009.65 523.216,1005.82 528.5,1001.5C 507.022,991.968 499.189,975.635 505,952.5C 508.68,941.486 515.847,933.653 526.5,929C 532.841,926.498 539.175,924.332 545.5,922.5 Z M 541.5,933.5 C 560.765,934.269 570.432,944.436 570.5,964C 570.632,972.946 567.632,980.612 561.5,987C 543.832,993.583 532.332,987.749 527,969.5C 524.368,959.742 525.368,950.409 530,941.5C 533.15,937.689 536.983,935.023 541.5,933.5 Z M 539.5,1037.5 C 548.199,1037.42 556.865,1037.92 565.5,1039C 571.905,1039.8 577.905,1041.8 583.5,1045C 592.258,1053.99 592.758,1063.49 585,1073.5C 576.75,1081.2 566.917,1084.86 555.5,1084.5C 541.337,1085.17 530.171,1079.83 522,1068.5C 517.883,1058.14 520.383,1049.64 529.5,1043C 532.767,1040.87 536.1,1039.04 539.5,1037.5 Z"/></g>
<g><path style="opacity:0.974" fill="#21303c" d="M 680.5,922.5 C 711.167,919.394 731,932.394 740,961.5C 744.385,981.244 740.718,999.244 729,1015.5C 705.366,1037.96 679.199,1041.46 650.5,1026C 636.08,1013.62 629.08,997.783 629.5,978.5C 629.583,954.494 640.583,937.66 662.5,928C 668.531,925.832 674.531,923.999 680.5,922.5 Z M 676.5,934.5 C 697.261,935.414 710.095,946.081 715,966.5C 718.435,979.923 718.102,993.256 714,1006.5C 706.118,1022.35 693.951,1026.85 677.5,1020C 667.184,1013.87 660.351,1005.04 657,993.5C 651.558,977.042 652.558,961.042 660,945.5C 664.352,939.921 669.852,936.254 676.5,934.5 Z"/></g>
<g><path style="opacity:0.977" fill="#21303c" d="M 273.5,922.5 C 311.4,920.736 331.733,938.736 334.5,976.5C 333.78,1007.38 318.447,1026.55 288.5,1034C 246.518,1039.18 224.518,1020.68 222.5,978.5C 222.613,953.429 234.28,936.263 257.5,927C 262.874,925.16 268.207,923.66 273.5,922.5 Z M 268.5,934.5 C 290.688,935.179 303.854,946.512 308,968.5C 310.239,980.914 309.905,993.247 307,1005.5C 300.178,1021.11 288.678,1026.27 272.5,1021C 258.353,1013.91 250.187,1002.41 248,986.5C 245.566,974.309 246.233,962.309 250,950.5C 253.609,942.048 259.775,936.715 268.5,934.5 Z"/></g>
<g><path style="opacity:1" fill="#203040" d="M 22.5,999.5 C 22.5,990.167 22.5,980.833 22.5,971.5C 23.1659,967.012 23.4992,962.346 23.5,957.5C 23.4987,950.318 22.9987,943.318 22,936.5C 23.6934,935.816 25.1934,934.816 26.5,933.5C 27.0045,930.658 28.6711,929.325 31.5,929.5C 31.5,934.167 31.5,938.833 31.5,943.5C 30.1667,943.5 28.8333,943.5 27.5,943.5C 27.5,954.167 27.5,964.833 27.5,975.5C 26.1667,975.5 24.8333,975.5 23.5,975.5C 23.9573,979.815 24.2907,984.149 24.5,988.5C 24.7058,992.469 24.0392,996.135 22.5,999.5 Z"/></g>
<g><path style="opacity:0.967" fill="#21303c" d="M 371.5,1002.5 C 372.167,986.662 372.833,970.662 373.5,954.5C 375.961,951.336 375.295,948.669 371.5,946.5C 370.264,945.754 368.93,945.421 367.5,945.5C 362.897,943.575 358.23,941.742 353.5,940C 350.833,937.667 350.833,935.333 353.5,933C 366.704,930.282 379.704,926.782 392.5,922.5C 393.647,922.818 394.481,923.484 395,924.5C 395.219,929.515 395.219,934.515 395,939.5C 405.478,929.762 417.811,923.762 432,921.5C 451.715,923.213 463.048,933.88 466,953.5C 467.176,974.479 467.843,995.479 468,1016.5C 468.374,1017.42 468.874,1018.25 469.5,1019C 474.402,1020.81 479.402,1022.31 484.5,1023.5C 485.605,1026.85 485.438,1030.18 484,1033.5C 465.336,1033.54 446.67,1033.54 428,1033.5C 427.333,1030.17 427.333,1026.83 428,1023.5C 431.45,1022.62 434.95,1021.78 438.5,1021C 439.931,1020.53 441.097,1019.7 442,1018.5C 443.126,1009.4 443.626,1000.24 443.5,991C 443.333,982.833 443.167,974.667 443,966.5C 441.77,947.294 431.603,939.127 412.5,942C 405.552,943.381 400.052,946.881 396,952.5C 395.333,973.833 395.333,995.167 396,1016.5C 396.833,1018.67 398.333,1020.17 400.5,1021C 404.418,1022.16 408.418,1022.66 412.5,1022.5C 412.759,1026.24 412.426,1029.91 411.5,1033.5C 392.854,1033.33 374.188,1033.5 355.5,1034C 354.378,1030.59 354.211,1027.09 355,1023.5C 358.405,1022.42 361.905,1021.58 365.5,1021C 367.286,1020.22 368.786,1019.05 370,1017.5C 370.611,1012.5 371.111,1007.5 371.5,1002.5 Z"/></g>
<g><path style="opacity:1" fill="#203040" d="M 373.5,943.5 C 376.833,943.5 380.167,943.5 383.5,943.5C 383.5,964.833 383.5,986.167 383.5,1007.5C 382.167,1007.5 380.833,1007.5 379.5,1007.5C 379.5,1010.17 379.5,1012.83 379.5,1015.5C 380.833,1015.5 382.167,1015.5 383.5,1015.5C 383.5,1016.83 383.5,1018.17 383.5,1019.5C 381.5,1019.5 379.5,1019.5 377.5,1019.5C 377.769,1017.57 377.269,1015.9 376,1014.5C 375.223,992.813 375.389,971.147 376.5,949.5C 377.675,949.719 378.675,949.386 379.5,948.5C 376.832,947.487 374.832,945.821 373.5,943.5 Z"/></g>
<g><path style="opacity:0.678" fill="#233035" d="M 367.5,945.5 C 368.93,945.421 370.264,945.754 371.5,946.5C 375.295,948.669 375.961,951.336 373.5,954.5C 372.833,970.662 372.167,986.662 371.5,1002.5C 371.667,984.83 371.5,967.164 371,949.5C 370.31,947.65 369.144,946.316 367.5,945.5 Z"/></g>
<g><path style="opacity:0.729" fill="#243037" d="M 1133.5,990.5 C 1152.6,991.098 1160.44,1000.76 1157,1019.5C 1149.04,1033.5 1137.87,1036.67 1123.5,1029C 1114.46,1019.71 1113.29,1009.55 1120,998.5C 1123.7,994.268 1128.2,991.602 1133.5,990.5 Z M 1133.5,993.5 C 1146.17,993.335 1153.5,999.501 1155.5,1012C 1151.68,1028.41 1142.01,1033.41 1126.5,1027C 1115.83,1017 1115.83,1007 1126.5,997C 1128.93,995.787 1131.26,994.621 1133.5,993.5 Z M 1132.5,1002.5 C 1135.19,1002.34 1137.85,1002.5 1140.5,1003C 1141.83,1005 1141.83,1007 1140.5,1009C 1137.99,1010.25 1135.32,1010.75 1132.5,1010.5C 1132.5,1007.83 1132.5,1005.17 1132.5,1002.5 Z"/></g>
<g><path style="opacity:0.77" fill="#22303b" d="M 1128.5,998.5 C 1132.85,998.334 1137.18,998.501 1141.5,999C 1143.33,999.5 1144.5,1000.67 1145,1002.5C 1146.41,1007.32 1145.24,1011.32 1141.5,1014.5C 1142.77,1018.2 1144.43,1021.7 1146.5,1025C 1144.83,1025.67 1143.17,1025.67 1141.5,1025C 1140,1021.85 1138.5,1018.68 1137,1015.5C 1135.64,1014.62 1134.14,1014.29 1132.5,1014.5C 1132.5,1018.17 1132.5,1021.83 1132.5,1025.5C 1131.17,1025.5 1129.83,1025.5 1128.5,1025.5C 1128.5,1016.5 1128.5,1007.5 1128.5,998.5 Z M 1132.5,1002.5 C 1132.5,1005.17 1132.5,1007.83 1132.5,1010.5C 1135.32,1010.75 1137.99,1010.25 1140.5,1009C 1141.83,1007 1141.83,1005 1140.5,1003C 1137.85,1002.5 1135.19,1002.34 1132.5,1002.5 Z"/></g>
</svg>
