<?xml version="1.0" encoding="UTF-8"?>
<!DOCTYPE svg PUBLIC "-//W3C//DTD SVG 1.1//EN" "http://www.w3.org/Graphics/SVG/1.1/DTD/svg11.dtd">
<svg xmlns="http://www.w3.org/2000/svg" version="1.1" width="750px" height="619px" style="shape-rendering:geometricPrecision; text-rendering:geometricPrecision; image-rendering:optimizeQuality; fill-rule:evenodd; clip-rule:evenodd" xmlns:xlink="http://www.w3.org/1999/xlink">
<g><path style="opacity:0.962" fill="#01608a" d="M 316.5,0.5 C 328.354,-0.0245417 339.687,2.14212 350.5,7C 363.555,12.746 375.555,20.0793 386.5,29C 410.17,29.5008 432.504,35.1675 453.5,46C 486.135,64.7558 514.635,88.5892 539,117.5C 548.056,129.556 556.722,141.89 565,154.5C 574.659,176.132 584.325,197.799 594,219.5C 601.745,235.323 609.745,250.99 618,266.5C 655.834,281.352 689.168,303.018 718,331.5C 720.186,335.198 722.853,338.532 726,341.5C 726.494,343.134 726.66,344.801 726.5,346.5C 704.805,350.755 683.138,355.255 661.5,360C 663.5,362.667 665.5,365.333 667.5,368C 681.179,376.505 694.512,385.505 707.5,395C 717.364,404.53 726.864,414.363 736,424.5C 738.55,428.582 740.216,432.915 741,437.5C 731.451,429.616 721.618,422.116 711.5,415C 698.833,408.667 686.167,402.333 673.5,396C 659.427,387.928 647.927,377.095 639,363.5C 637.774,360.048 636.274,356.715 634.5,353.5C 635.128,351.742 636.128,350.242 637.5,349C 659.316,340.253 681.982,336.253 705.5,337C 703.167,334.667 700.833,332.333 698.5,330C 683.994,320.581 669.661,310.914 655.5,301C 641.128,294.876 626.462,289.543 611.5,285C 608.241,283.789 605.408,281.956 603,279.5C 597.829,271.828 593.162,263.828 589,255.5C 575.51,227.521 562.843,199.188 551,170.5C 523.233,119.733 483.4,81.5662 431.5,56C 425.93,53.7147 420.264,51.7147 414.5,50C 402.221,48.282 389.888,46.9487 377.5,46C 362.229,33.0282 344.896,23.6949 325.5,18C 312.712,17.053 308.878,22.553 314,34.5C 323.667,48.1667 333.333,61.8333 343,75.5C 345.194,79.7486 347.194,84.082 349,88.5C 353.669,102.511 358.335,116.511 363,130.5C 367.773,142.39 374.773,152.724 384,161.5C 387.748,166.818 388.414,172.485 386,178.5C 373.479,206.523 370.479,235.523 377,265.5C 379.752,276.498 384.252,286.665 390.5,296C 392.818,297.993 395.484,299.159 398.5,299.5C 399.177,283.435 402.011,267.768 407,252.5C 411.513,245.476 416.513,238.809 422,232.5C 436.863,270.908 456.863,306.242 482,338.5C 486.865,343.7 492.032,348.533 497.5,353C 493.292,352.733 489.625,351.066 486.5,348C 473.572,336.283 460.738,324.45 448,312.5C 437.407,300.334 429.074,286.668 423,271.5C 420.585,283.155 418.252,294.821 416,306.5C 412.806,313.521 407.306,317.187 399.5,317.5C 391.976,316.655 385.809,313.322 381,307.5C 365.65,286.461 358.483,262.794 359.5,236.5C 359.991,215.537 363.824,195.203 371,175.5C 371.667,173.833 371.667,172.167 371,170.5C 361.724,160.189 354.391,148.522 349,135.5C 342.796,118.554 336.796,101.554 331,84.5C 322.719,72.5513 314.052,60.8847 305,49.5C 296.306,38.0478 294.639,25.7145 300,12.5C 303.892,6.15104 309.392,2.15104 316.5,0.5 Z"/></g>
<g><path style="opacity:0.93" fill="#01608a" d="M 388.5,75.5 C 398.595,74.1332 405.762,78.1332 410,87.5C 411.006,94.8184 408.672,100.818 403,105.5C 400.349,100.198 397.682,94.8644 395,89.5C 391.593,85.6819 388.426,81.6819 385.5,77.5C 386.602,76.8243 387.602,76.1577 388.5,75.5 Z"/></g>
<g><path style="opacity:0.963" fill="#00608a" d="M 22.5,377.5 C 34.4517,376.939 42.6183,382.273 47,393.5C 59.1594,439.138 71.1594,484.805 83,530.5C 95.5877,487.06 107.588,443.393 119,399.5C 126.67,376.054 140.67,371.388 161,385.5C 163.637,389.072 165.303,393.072 166,397.5C 166.5,453.166 166.667,508.832 166.5,564.5C 158.167,564.5 149.833,564.5 141.5,564.5C 141.667,514.832 141.5,465.166 141,415.5C 128.87,460.891 116.536,506.224 104,551.5C 98.738,564.713 89.238,569.213 75.5,565C 69.5361,562.366 65.7027,557.866 64,551.5C 51.3541,506.249 39.0207,460.916 27,415.5C 26.5,465.166 26.3333,514.832 26.5,564.5C 18.1667,564.5 9.83333,564.5 1.5,564.5C 1.33334,508.832 1.50001,453.166 2,397.5C 4.17749,386.005 11.0108,379.339 22.5,377.5 Z"/></g>
<g><path style="opacity:0.965" fill="#e48e00" d="M 344.5,381.5 C 370.833,381.5 397.167,381.5 423.5,381.5C 423.5,390.5 423.5,399.5 423.5,408.5C 399.498,408.333 375.498,408.5 351.5,409C 346.124,409.376 342.958,412.21 342,417.5C 341.333,427.5 341.333,437.5 342,447.5C 342.941,453.237 346.108,457.071 351.5,459C 366.221,459.067 380.888,459.734 395.5,461C 409.441,465.274 418.274,474.44 422,488.5C 422.667,502.833 422.667,517.167 422,531.5C 418.8,547.752 409.3,558.252 393.5,563C 367.864,564.422 342.197,564.922 316.5,564.5C 316.5,555.167 316.5,545.833 316.5,536.5C 339.836,536.667 363.169,536.5 386.5,536C 391.974,534.526 395.474,531.026 397,525.5C 397.667,515.5 397.667,505.5 397,495.5C 395.273,489.107 391.106,485.607 384.5,485C 372.833,484.667 361.167,484.333 349.5,484C 332.6,480.763 321.767,470.93 317,454.5C 316.099,438.793 316.432,423.127 318,407.5C 322.122,393.877 330.955,385.21 344.5,381.5 Z"/></g>
<g><path style="opacity:0.961" fill="#e48e00" d="M 468.5,381.5 C 488.221,381.049 507.888,381.549 527.5,383C 543.942,388.116 553.109,399.283 555,416.5C 555.667,454.167 555.667,491.833 555,529.5C 554.337,540.326 549.837,549.159 541.5,556C 549.539,567.242 557.205,578.742 564.5,590.5C 554.833,591.833 545.167,591.833 535.5,590.5C 529.649,580.783 523.315,571.45 516.5,562.5C 506.585,563.999 496.585,564.666 486.5,564.5C 459.514,568.111 443.014,556.777 437,530.5C 436.333,492.167 436.333,453.833 437,415.5C 440.022,397.054 450.522,385.721 468.5,381.5 Z M 477.5,408.5 C 490.837,408.333 504.171,408.5 517.5,409C 524.423,409.919 528.923,413.752 531,420.5C 531.667,455.5 531.667,490.5 531,525.5C 529.985,528.21 528.485,530.543 526.5,532.5C 520.71,524.421 515.043,516.254 509.5,508C 500.149,507.168 490.816,507.335 481.5,508.5C 487.461,518.258 493.795,527.758 500.5,537C 492.5,537.667 484.5,537.667 476.5,537C 470.438,535.938 466.605,532.438 465,526.5C 463.36,491.547 463.027,456.547 464,421.5C 465.894,414.328 470.394,409.995 477.5,408.5 Z"/></g>
<g><path style="opacity:0.935" fill="#e48d00" d="M 568.5,381.5 C 577.167,381.5 585.833,381.5 594.5,381.5C 594.333,429.834 594.5,478.168 595,526.5C 596.305,532.073 599.805,535.239 605.5,536C 628.498,536.5 651.498,536.667 674.5,536.5C 674.5,545.833 674.5,555.167 674.5,564.5C 653.831,564.667 633.164,564.5 612.5,564C 584.667,562.833 570.167,548.333 569,520.5C 568.5,474.168 568.333,427.835 568.5,381.5 Z"/></g>
<g><path style="opacity:0.95" fill="#00618a" d="M 268.5,618.5 C 240.833,618.5 213.167,618.5 185.5,618.5C 185.5,609.5 185.5,600.5 185.5,591.5C 211.502,591.667 237.502,591.5 263.5,591C 268.206,589.895 271.373,587.062 273,582.5C 273.5,575.842 273.666,569.175 273.5,562.5C 254.497,562.667 235.497,562.5 216.5,562C 200.538,558.705 190.372,549.205 186,533.5C 185.5,501.168 185.333,468.835 185.5,436.5C 193.833,436.5 202.167,436.5 210.5,436.5C 210.333,467.502 210.5,498.502 211,529.5C 212.85,535.016 216.683,537.85 222.5,538C 239.497,538.5 256.497,538.667 273.5,538.5C 273.5,504.5 273.5,470.5 273.5,436.5C 282.167,436.5 290.833,436.5 299.5,436.5C 299.972,486.866 299.472,537.2 298,587.5C 294.433,603.898 284.6,614.231 268.5,618.5 Z"/></g>
<g><path style="opacity:0.897" fill="#e48e00" d="M 710.5,507.5 C 736.123,505.294 748.623,516.96 748,542.5C 742.218,561.142 729.718,568.642 710.5,565C 694.023,558.833 687.19,547 690,529.5C 693.259,518.744 700.092,511.411 710.5,507.5 Z M 712.5,514.5 C 726.033,512.512 735.2,517.845 740,530.5C 742.025,539.001 740.025,546.334 734,552.5C 730.833,548 727.667,543.5 724.5,539C 733.432,536.29 735.599,530.79 731,522.5C 729.352,521.283 727.519,520.45 725.5,520C 719.175,519.5 712.842,519.334 706.5,519.5C 706.5,530.833 706.5,542.167 706.5,553.5C 708.833,553.5 711.167,553.5 713.5,553.5C 713.5,548.833 713.5,544.167 713.5,539.5C 715.288,539.215 716.955,539.548 718.5,540.5C 720.833,544.5 723.167,548.5 725.5,552.5C 727.766,553.314 730.1,553.814 732.5,554C 720.173,561.751 709.339,559.918 700,548.5C 693.63,533.095 697.797,521.762 712.5,514.5 Z M 713.5,525.5 C 717.182,525.335 720.848,525.501 724.5,526C 727.288,528.763 726.955,531.097 723.5,533C 720.183,533.498 716.85,533.665 713.5,533.5C 713.5,530.833 713.5,528.167 713.5,525.5 Z"/></g>
</svg>
