<?xml version="1.0" encoding="UTF-8"?>
<!DOCTYPE svg PUBLIC "-//W3C//DTD SVG 1.1//EN" "http://www.w3.org/Graphics/SVG/1.1/DTD/svg11.dtd">
<svg xmlns="http://www.w3.org/2000/svg" version="1.1" width="924px" height="638px" style="shape-rendering:geometricPrecision; text-rendering:geometricPrecision; image-rendering:optimizeQuality; fill-rule:evenodd; clip-rule:evenodd" xmlns:xlink="http://www.w3.org/1999/xlink">
<g><path style="opacity:0.995" fill="#d72c20" d="M 658.5,265.5 C 657.669,253.007 657.169,240.34 657,227.5C 650.783,233.695 643.617,238.529 635.5,242C 582.598,264.784 529.931,288.117 477.5,312C 464.341,316.94 451.341,316.607 438.5,311C 392.064,290.782 345.397,271.115 298.5,252C 289.347,247.923 280.347,243.59 271.5,239C 269.266,236.937 267.266,234.771 265.5,232.5C 266.377,226.11 270.043,221.943 276.5,220C 334.276,197.075 392.276,174.742 450.5,153C 456.596,151.462 462.763,150.296 469,149.5C 480.948,151.038 492.448,154.205 503.5,159C 553.167,178.667 602.833,198.333 652.5,218C 654.585,219.041 656.252,220.541 657.5,222.5C 658.499,236.818 658.833,251.151 658.5,265.5 Z"/></g>
<g><path style="opacity:1" fill="#fef8f8" d="M 459.5,202.5 C 459.389,201.883 459.056,201.383 458.5,201C 454.848,200.501 451.182,200.335 447.5,200.5C 438.477,199.996 429.477,199.163 420.5,198C 425.369,195.703 430.369,193.87 435.5,192.5C 438.346,192.448 440.68,191.448 442.5,189.5C 444.929,189.415 446.929,188.415 448.5,186.5C 445.65,181.962 442.983,177.296 440.5,172.5C 441,172.167 441.5,171.833 442,171.5C 450.692,175.753 459.692,179.086 469,181.5C 476.392,179.369 483.726,177.036 491,174.5C 491.5,174.833 492,175.167 492.5,175.5C 490.039,180.393 488.206,185.393 487,190.5C 495.357,193.844 503.857,197.01 512.5,200C 501.086,201.041 489.753,202.541 478.5,204.5C 476,210.167 473.5,215.833 471,221.5C 467.169,215.171 463.335,208.838 459.5,202.5 Z"/></g>
<g><path style="opacity:1" fill="#f0aaa4" d="M 442.5,189.5 C 440.68,191.448 438.346,192.448 435.5,192.5C 437.509,190.935 439.843,189.935 442.5,189.5 Z"/></g>
<g><path style="opacity:1" fill="#f1aba6" d="M 447.5,200.5 C 451.182,200.335 454.848,200.501 458.5,201C 459.056,201.383 459.389,201.883 459.5,202.5C 455.358,201.96 451.358,201.294 447.5,200.5 Z"/></g>
<g><path style="opacity:1" fill="#a41e11" d="M 553.5,205.5 C 552.879,219.591 552.879,233.591 553.5,247.5C 551.173,247.665 549.007,248.331 547,249.5C 530.642,242.886 513.475,236.053 495.5,229C 514.703,220.876 534.037,213.043 553.5,205.5 Z"/></g>
<g><path style="opacity:0.996" fill="#831004" d="M 553.5,205.5 C 570.042,212.51 586.708,219.01 603.5,225C 604.833,226 604.833,227 603.5,228C 586.664,234.002 569.997,240.502 553.5,247.5C 552.879,233.591 552.879,219.591 553.5,205.5 Z"/></g>
<g><path style="opacity:1" fill="#fefbfb" d="M 361.5,246.5 C 358.781,245.087 355.781,244.42 352.5,244.5C 345.93,243.117 340.263,240.117 335.5,235.5C 335.008,233.181 334.008,231.181 332.5,229.5C 333.396,225.093 335.73,221.593 339.5,219C 347.914,214.531 356.914,211.864 366.5,211C 386.697,208.773 406.03,211.773 424.5,220C 431.156,225.953 431.156,231.953 424.5,238C 421.339,239.413 418.339,241.08 415.5,243C 397.66,247.976 379.66,249.143 361.5,246.5 Z"/></g>
<g><path style="opacity:0.998" fill="#a41e11" d="M 658.5,265.5 C 656.909,267.437 655.242,269.437 653.5,271.5C 649.006,274.055 645.006,277.055 641.5,280.5C 638.419,279.665 635.419,280.165 632.5,282C 578.746,305.375 525.08,329.041 471.5,353C 462.06,355.243 452.726,354.91 443.5,352C 390.594,329.629 337.76,307.129 285,284.5C 284,285.167 283,285.833 282,286.5C 281.601,286.272 281.435,285.938 281.5,285.5C 277.232,282.691 272.898,279.857 268.5,277C 267.299,276.097 266.465,274.931 266,273.5C 265.5,259.837 265.333,246.171 265.5,232.5C 267.266,234.771 269.266,236.937 271.5,239C 280.347,243.59 289.347,247.923 298.5,252C 345.397,271.115 392.064,290.782 438.5,311C 451.341,316.607 464.341,316.94 477.5,312C 529.931,288.117 582.598,264.784 635.5,242C 643.617,238.529 650.783,233.695 657,227.5C 657.169,240.34 657.669,253.007 658.5,265.5 Z"/></g>
<g><path style="opacity:1" fill="#efa49e" d="M 332.5,229.5 C 334.008,231.181 335.008,233.181 335.5,235.5C 333.461,234.089 332.461,232.089 332.5,229.5 Z"/></g>
<g><path style="opacity:1" fill="#f0a8a3" d="M 352.5,244.5 C 355.781,244.42 358.781,245.087 361.5,246.5C 358.219,246.58 355.219,245.913 352.5,244.5 Z"/></g>
<g><path style="opacity:1" fill="#fefaf9" d="M 489.5,249.5 C 491.527,249.338 493.527,249.505 495.5,250C 486.662,262.995 477.662,275.828 468.5,288.5C 448.54,281.289 428.873,273.289 409.5,264.5C 409.389,263.883 409.056,263.383 408.5,263C 414.103,262.424 419.436,261.257 424.5,259.5C 429.833,258.833 435.167,258.167 440.5,257.5C 448.468,257.118 456.134,255.784 463.5,253.5C 468.793,252.554 474.126,251.887 479.5,251.5C 483.16,251.841 486.493,251.175 489.5,249.5 Z"/></g>
<g><path style="opacity:1" fill="#f0a6a0" d="M 489.5,249.5 C 486.493,251.175 483.16,251.841 479.5,251.5C 482.627,250.419 485.96,249.753 489.5,249.5 Z"/></g>
<g><path style="opacity:1" fill="#f1afab" d="M 463.5,253.5 C 456.134,255.784 448.468,257.118 440.5,257.5C 447.949,255.647 455.615,254.313 463.5,253.5 Z"/></g>
<g><path style="opacity:1" fill="#f0a8a3" d="M 424.5,259.5 C 419.436,261.257 414.103,262.424 408.5,263C 409.056,263.383 409.389,263.883 409.5,264.5C 407.255,264.459 406.588,263.625 407.5,262C 413.156,261.025 418.823,260.192 424.5,259.5 Z"/></g>
<g><path style="opacity:0.997" fill="#d62b1f" d="M 641.5,280.5 C 647.718,281.942 653.052,284.942 657.5,289.5C 658.499,303.818 658.833,318.151 658.5,332.5C 657.669,319.673 657.169,306.673 657,293.5C 655.542,295.96 653.709,298.127 651.5,300C 645.822,303.841 639.822,307.174 633.5,310C 582.813,331.509 532.48,353.843 482.5,377C 472.335,381.875 461.668,383.541 450.5,382C 394.349,359.06 338.349,335.727 282.5,312C 275.66,309.265 269.993,305.098 265.5,299.5C 265.143,295.336 266.81,292.169 270.5,290C 273.961,287.934 277.627,286.434 281.5,285.5C 281.435,285.938 281.601,286.272 282,286.5C 283,285.833 284,285.167 285,284.5C 337.76,307.129 390.594,329.629 443.5,352C 452.726,354.91 462.06,355.243 471.5,353C 525.08,329.041 578.746,305.375 632.5,282C 635.419,280.165 638.419,279.665 641.5,280.5 Z"/></g>
<g><path style="opacity:0.999" fill="#a41e11" d="M 658.5,332.5 C 654.482,337.843 649.482,342.177 643.5,345.5C 642.883,345.389 642.383,345.056 642,344.5C 588.767,368.135 535.6,391.969 482.5,416C 468.767,422.455 454.767,423.122 440.5,418C 387.65,395.496 334.816,372.996 282,350.5C 280.984,351.634 280.317,351.301 280,349.5C 279.841,351.343 279.341,352.009 278.5,351.5C 274.115,348.202 269.948,344.535 266,340.5C 265.5,326.837 265.333,313.171 265.5,299.5C 269.993,305.098 275.66,309.265 282.5,312C 338.349,335.727 394.349,359.06 450.5,382C 461.668,383.541 472.335,381.875 482.5,377C 532.48,353.843 582.813,331.509 633.5,310C 639.822,307.174 645.822,303.841 651.5,300C 653.709,298.127 655.542,295.96 657,293.5C 657.169,306.673 657.669,319.673 658.5,332.5 Z"/></g>
<g><path style="opacity:0.996" fill="#d62b1f" d="M 643.5,345.5 C 649.195,347.098 654.028,350.098 658,354.5C 658.5,368.829 658.667,383.163 658.5,397.5C 657.669,384.673 657.169,371.673 657,358.5C 654.833,362 652,364.833 648.5,367C 602.749,387.916 556.749,408.249 510.5,428C 497.175,434.83 483.508,440.83 469.5,446C 459.156,448.432 449.156,447.432 439.5,443C 390.615,422.058 341.615,401.391 292.5,381C 284.888,377.861 277.554,374.194 270.5,370C 268.598,368.27 266.931,366.437 265.5,364.5C 265.298,362.011 265.798,359.677 267,357.5C 270.493,354.837 274.327,352.837 278.5,351.5C 279.341,352.009 279.841,351.343 280,349.5C 280.317,351.301 280.984,351.634 282,350.5C 334.816,372.996 387.65,395.496 440.5,418C 454.767,423.122 468.767,422.455 482.5,416C 535.6,391.969 588.767,368.135 642,344.5C 642.383,345.056 642.883,345.389 643.5,345.5 Z"/></g>
<g><path style="opacity:0.986" fill="#a41e11" d="M 658.5,397.5 C 655.694,401.137 652.361,404.304 648.5,407C 608.334,426.082 567.668,444.082 526.5,461C 510.682,468.076 495.015,475.41 479.5,483C 465.015,489.198 450.682,488.865 436.5,482C 382.085,458.861 327.751,435.528 273.5,412C 270.705,410.207 268.205,408.04 266,405.5C 265.5,391.837 265.333,378.171 265.5,364.5C 266.931,366.437 268.598,368.27 270.5,370C 277.554,374.194 284.888,377.861 292.5,381C 341.615,401.391 390.615,422.058 439.5,443C 449.156,447.432 459.156,448.432 469.5,446C 483.508,440.83 497.175,434.83 510.5,428C 556.749,408.249 602.749,387.916 648.5,367C 652,364.833 654.833,362 657,358.5C 657.169,371.673 657.669,384.673 658.5,397.5 Z"/></g>
</svg>
