<?xml version="1.0" encoding="UTF-8"?>
<svg version="1.1" xmlns="http://www.w3.org/2000/svg" width="72" height="72">
<path d="M0 0 C23.76 0 47.52 0 72 0 C72 23.76 72 47.52 72 72 C48.24 72 24.48 72 0 72 C0 48.24 0 24.48 0 0 Z " fill="#17CEFA" transform="translate(0,0)"/>
<path d="M0 0 C23.76 0 47.52 0 72 0 C72 23.76 72 47.52 72 72 C48.24 72 24.48 72 0 72 C0 48.24 0 24.48 0 0 Z M4 4 C4 25.12 4 46.24 4 68 C25.12 68 46.24 68 68 68 C68 46.88 68 25.76 68 4 C46.88 4 25.76 4 4 4 Z " fill="#173B4E" transform="translate(0,0)"/>
<path d="M0 0 C0.495 0.99 0.495 0.99 1 2 C-4.21492155 10.65455066 -8.82846259 14.81745199 -18.72265625 17.35546875 C-23.22686005 18.2412776 -27.76413601 18.74552938 -32.34130859 19.09033203 C-37.22061411 19.55601207 -40.121121 21.07221984 -44 24 C-44.66 24.33 -45.32 24.66 -46 25 C-44.84496296 18.39978832 -40.18718024 14.76940758 -35 11 C-29.64440711 8.18278507 -23.40017278 7.97129188 -17.48046875 7.23242188 C-11.05474523 6.35794371 -4.32610474 5.34401173 0 0 Z " fill="#173E51" transform="translate(60,13)"/>
<path d="M0 0 C0.495 1.485 0.495 1.485 1 3 C-2.02576661 8.68844123 -5.89156825 11.96385608 -12 14 C-13.57898822 14.13567654 -15.16232011 14.22404 -16.74609375 14.28125 C-17.66583984 14.31863281 -18.58558594 14.35601562 -19.53320312 14.39453125 C-20.97083008 14.44673828 -20.97083008 14.44673828 -22.4375 14.5 C-24.3321749 14.56908335 -26.22671954 14.64186147 -28.12109375 14.71875 C-28.9608374 14.74904297 -29.80058105 14.77933594 -30.66577148 14.81054688 C-32.88354854 14.99054844 -34.86399988 15.39208754 -37 16 C-36.70540991 12.46491897 -36.25118587 11.23796556 -33.625 8.75 C-29.41508137 5.94338758 -25.27929728 5.61623821 -20.375 5.0625 C-9.67802717 4.09422468 -9.67802717 4.09422468 0 0 Z " fill="#173B4E" transform="translate(51,30)"/>
<path d="M0 0 C0.94101562 0.00322266 1.88203125 0.00644531 2.8515625 0.00976562 C3.83640625 0.01814453 4.82125 0.02652344 5.8359375 0.03515625 C6.82851563 0.03966797 7.82109375 0.04417969 8.84375 0.04882812 C11.2995391 0.0606348 13.75520854 0.07710225 16.2109375 0.09765625 C8.16176826 8.22665196 8.16176826 8.22665196 1.1484375 8.53515625 C-2.44743379 8.4440537 -3.47167207 8.33947753 -6.4140625 6.09765625 C-6.8678125 5.43765625 -7.3215625 4.77765625 -7.7890625 4.09765625 C-7.4590625 3.10765625 -7.1290625 2.11765625 -6.7890625 1.09765625 C-4.33631109 -0.12871945 -2.7384844 -0.01649689 0 0 Z " fill="#174053" transform="translate(22.7890625,47.90234375)"/>
<path d="M0 0 C0.66 0.33 1.32 0.66 2 1 C-1.20760251 4.80635497 -4.40746109 8.54563567 -8 12 C-6.64994369 6.32976351 -4.1842771 3.82042691 0 0 Z " fill="#174C61" transform="translate(22,26)"/>
</svg>
